<svg width="27" height="29" viewBox="0 0 27 29" fill="none" xmlns="http://www.w3.org/2000/svg">
<path d="M21.4416 0C20.1079 0.00212711 18.8199 0.485246 17.8135 1.36053C16.8071 2.23554 16.1501 3.44428 15.9629 4.76472H1.58841C1.16698 4.76472 0.763097 4.93196 0.465302 5.23002C0.167507 5.52782 0 5.93173 0 6.35286V7.28321C0 7.70464 0.167507 8.10852 0.465302 8.40632L9.99474 17.9358C10.0944 18.0227 10.2051 18.0961 10.3239 18.1543V27.0004H3.97077C3.53205 27.0004 3.17656 27.3559 3.17656 27.7943C3.17656 28.233 3.53205 28.5885 3.97077 28.5885H18.2649C18.7034 28.5885 19.0589 28.233 19.0589 27.7943C19.0589 27.3558 18.7034 27.0004 18.2649 27.0004H11.9121V18.1543C12.0306 18.0961 12.1413 18.0227 12.241 17.936L19.4439 10.7331C20.9844 11.3287 22.71 11.208 24.1525 10.4032C25.5947 9.59833 26.604 8.19335 26.9063 6.5696C27.2083 4.94585 26.772 3.2718 25.7157 2.00214C24.6595 0.732548 23.0927 -0.00108211 21.441 0.000551511L21.4416 0ZM11.1185 16.8127L5.4234 11.1176H16.8138L11.1185 16.8127ZM18.4017 9.52944H3.83525L1.5893 7.28321V6.35287H20.6482V7.28321L18.4017 9.52944ZM21.4418 9.52944C21.1999 9.52731 20.9585 9.50285 20.7207 9.45632L21.7707 8.40631H21.771C22.0688 8.10852 22.236 7.7044 22.236 7.2832V6.35285C22.236 5.93169 22.0688 5.52781 21.7707 5.23001C21.473 4.93195 21.069 4.76471 20.6479 4.76471H17.5517C17.7532 3.77801 18.3219 2.90484 19.1427 2.3217C19.9638 1.73861 20.9758 1.48924 21.9737 1.62401C22.9715 1.75882 23.8809 2.26773 24.5177 3.04758C25.1547 3.8277 25.4714 4.82053 25.4039 5.82534C25.3361 6.82988 24.8894 7.77139 24.154 8.45921C23.4183 9.14682 22.4491 9.52943 21.4419 9.52943L21.4418 9.52944Z" fill="#E88B71"/>
</svg>
