<svg width="23" height="23" viewBox="0 0 23 23" fill="none" xmlns="http://www.w3.org/2000/svg">
<path d="M18.25 9.92188C18.25 12.1985 16.8887 14.6244 15.2439 16.5363C14.4327 17.4793 13.5818 18.2625 12.8564 18.8032C12.493 19.0742 12.1732 19.2751 11.9156 19.4049C11.7871 19.4696 11.6834 19.5118 11.6047 19.5368C11.5217 19.5631 11.4907 19.5625 11.5 19.5625V21.0625C11.8687 21.0625 12.2563 20.9128 12.5903 20.7446C12.9479 20.5645 13.3429 20.3115 13.7529 20.0058C14.5744 19.3935 15.5048 18.5331 16.3811 17.5145C18.1113 15.5033 19.75 12.7338 19.75 9.92188H18.25ZM11.5 19.5625C11.5093 19.5625 11.4783 19.5631 11.3953 19.5368C11.3166 19.5118 11.2129 19.4696 11.0844 19.4049C10.8268 19.2751 10.507 19.0742 10.1436 18.8032C9.41816 18.2625 8.5673 17.4793 7.75606 16.5363C6.11128 14.6244 4.75 12.1985 4.75 9.92188H3.25C3.25 12.7338 4.88872 15.5033 6.61894 17.5145C7.4952 18.5331 8.42559 19.3935 9.24706 20.0058C9.65709 20.3115 10.0521 20.5645 10.4097 20.7446C10.7437 20.9128 11.1313 21.0625 11.5 21.0625V19.5625ZM4.75 9.92188C4.75 6.24448 7.76465 3.25 11.5 3.25V1.75C6.95107 1.75 3.25 5.40129 3.25 9.92188H4.75ZM11.5 3.25C15.2353 3.25 18.25 6.24448 18.25 9.92188H19.75C19.75 5.40129 16.0489 1.75 11.5 1.75V3.25Z" fill="#383FF1"/>
<circle r="3.5" transform="matrix(-1 0 0 1 11.4999 10.2501)" stroke="#383FF1" stroke-width="1.5"/>
</svg>
