<svg version="1.2" xmlns="http://www.w3.org/2000/svg" viewBox="0 0 313 306" width="313" height="306"><defs><clipPath clipPathUnits="userSpaceOnUse" id="cp1"><path d="m242.41 80.26l0.86 7.38c0.01 0.1 0.09 0.16 0.18 0.15q0.02 0 0.03-0.01 18.45-4.83 36.89-9.65 0.06-0.01 0.12 0 0.15 0.04 0.02 0.1l-36.91 19.04q-0.2 0.12-0.24 0.35-0.45 3.95-0.98 7.94c-2.58 19.5-11.59 38.03-22.56 54.21-18.03 26.6-41.05 49.41-65.51 71.21l-2.79 2.48c-0.21 0.19-0.53 0.19-0.75 0l-2.89-2.56c-22.79-20.42-43.91-41.5-61.73-65.76q-0.18-0.25 0.13-0.25l41.19-2.75c1.01-0.05 3.26 0.96 4.33 1.25q5.31 1.45 10.78 2.01c4.46 0.45 8.64 0.94 13.13 0.46 3.14-0.33 6.71-0.6 8.66-0.99 36.81-7.46 62.18-39.81 59.42-77.73q0.1-2.61-0.67-5.08c-5.07-33.21-31.9-58.23-65.04-61.63-20.22-2.08-40.83 5.04-55.75 18.61q-0.62 0.57-1.44 0.81c-3.82 1.15-7.34 2.07-11.16 4.08q-2.21 1.17-5.04 2.96-10.69 6.8-20.24 15.15-0.13 0.11-0.08-0.05c11.69-32.61 41.2-56.68 75.84-60.53 2.11-0.23 4.29-0.57 6.31-0.67 4.67-0.23 9.32-0.15 13.96 0.46 2.92 0.39 5.8 0.65 8.68 1.3 1.86 0.42 3.84 0.82 5.57 1.28 26.7 7.14 48.1 25.38 59.98 50.13 0.31 0.66 0.79 0.14 1.26 0.06q2.51-0.4 6.9-1.27 7.14-1.41 30.48-5.92c2.17-0.42 6.16-1.3 9.28-1.8q0.19-0.02 0.02 0.07-0.49 0.27-1.42 0.65-21.33 8.61-42.66 17.18c-0.1 0.04-0.15 0.14-0.12 0.23l1.83 6.38c0.06 0.17 0.23 0.27 0.41 0.23q33.26-8.24 66.5-16.43c1.95-0.48 3.82-1.15 5.81-1.4q0.21-0.03 0.01 0.05l-70.24 27.66c-0.24 0.1-0.39 0.35-0.36 0.61z"/></clipPath></defs><style>tspan{white-space:pre}.a{font-size: 44px;line-height: 1px;fill: #353535;font-family: "Impact"}.b{font-size: 44px;line-height: 1px;fill: #e78b70;font-family: "Impact"}.c{fill:#e88b71}.d{fill:#353535}.e{fill:#323232}.f{fill:#a55244}</style><text style="transform:matrix(1,0,0,1,157,304.783)" ><tspan x="-67.9" y="0" class="a">TRIP-</tspan><tspan  y="0" class="b">IDO
</tspan></text><path class="c" d="m242.4 80.3l0.9 7.3c0 0.1 0.1 0.2 0.2 0.2q0 0 0 0 18.4-4.8 36.9-9.7 0 0 0.1 0 0.1 0.1 0 0.1l-36.9 19.1q-0.2 0.1-0.2 0.3-0.5 4-1 8c-2.6 19.5-11.6 38-22.6 54.2-18 26.6-41 49.4-65.5 71.2l-2.8 2.5c-0.2 0.1-0.5 0.1-0.7 0l-2.9-2.6c-22.8-20.4-43.9-41.5-61.7-65.8q-0.2-0.2 0.1-0.2l41.2-2.8c1 0 3.2 1 4.3 1.3q5.3 1.4 10.8 2c4.4 0.4 8.6 0.9 13.1 0.5 3.2-0.4 6.7-0.6 8.7-1 36.8-7.5 62.1-39.8 59.4-77.8q0.1-2.6-0.7-5c-5.1-33.2-31.9-58.3-65-61.7-20.2-2.1-40.9 5.1-55.8 18.6q-0.6 0.6-1.4 0.8c-3.8 1.2-7.4 2.1-11.2 4.1q-2.2 1.2-5 3-10.7 6.8-20.3 15.1-0.1 0.2 0 0c11.7-32.6 41.2-56.7 75.8-60.5 2.1-0.3 4.3-0.6 6.3-0.7 4.7-0.2 9.3-0.2 14 0.5 2.9 0.3 5.8 0.6 8.7 1.2 1.8 0.5 3.8 0.9 5.5 1.3 26.7 7.2 48.1 25.4 60 50.2 0.3 0.6 0.8 0.1 1.3 0q2.5-0.4 6.9-1.2 7.1-1.5 30.4-6c2.2-0.4 6.2-1.3 9.3-1.8q0.2 0 0.1 0.1-0.5 0.3-1.5 0.6-21.3 8.7-42.6 17.2c-0.1 0.1-0.2 0.2-0.1 0.3l1.8 6.3c0 0.2 0.2 0.3 0.4 0.3q33.2-8.3 66.5-16.5c1.9-0.4 3.8-1.1 5.8-1.4q0.2 0 0 0.1l-70.2 27.7c-0.3 0.1-0.4 0.3-0.4 0.6z"/><path fill-rule="evenodd" class="d" d="m217.5 87.4q0 0.1-0.1 0.1 0 0 0 0c-3.7-0.9-8.1 1.7-10.4 4.4-6.4 7.4-9.5 20.7-3.2 29.5 0 0.1 0 0.2-0.1 0.3q0 0 0 0-1.1 0.6-2.2 1.1-17.3 7.9-34.6 15.8-1.7 0.8-2.3 1-0.1 0-0.1-0.1 4.3-10.4 2.3-21.5c-0.9-4.8-3.5-9.8-7.9-12.3q-0.3-0.2 0-0.3l56-23.8q0.1 0 0.1 0 0 0-0.1 0-30.1 10.9-60.2 21.9c-1.4 0.6-3.3 0.4-4.7 0.7-9.5 2.3-15.8 11.3-18.7 20.2-2.8 8.7-2.9 20.1 3.3 27.5 0 0.1 0 0.2-0.1 0.3q0 0 0 0c-5.9 1.5-11.8 2.6-17.8 3.3-2.4 0.3-5 0.7-7.3 0.9q-15.3 0.9-30.6-0.1-2 0.1-3.9-0.5c-10.1-0.7-19-2.2-27.7-3.5q-16.2-2.6-31-9.8c-9.9-4.9-17.7-12.2-14.6-24.6 0.5-2.2 0.7-3.6 1.3-5.4 1.5-5.1 6.4-9.9 6.4-9.9q0 0 0 0c10.9-11.3 26.2-17.3 41.3-20 1.6-0.2 3-1 4.5-1.5q0.2 0 0.3-0.1l1-0.8q0.1-0.1 0.1-0.3c-0.2-1.3-4.9-2.6-6.1-2.9-4.3-1.1-2.1-4.8-0.3-6.7 0.8-0.9 1.5-1.2 2.8-1.3q4.7-0.1 7.5 0.3c2.2 0.4 2.5 2.9 2.8 4.7q0 0.2 0.2 0.1 13.1-12.8 27.8-21.7 7-4.2 15.7-5v-0.2q0.1-0.1 0.3-0.1l1.3-0.1q6.2-0.7 12.4-0.9l0.1-0.3c0-0.1 0.1-0.2 0.2-0.2l10.6-0.2h10.2c4 0 6.7 0 9.3 0.6q11.6 0.6 22.9 3.5c9.4 2.4 16.9 6.7 25.1 10.9q5.5 2.9 11.9 4.9c0.8 0.3 1.2 0.8 1.5 1.7q1.3 3.2 2.3 6.5-0.2 0.6 0.3 0.9 0.7 2.2 1 4.5-0.1 0.7 0.5 1.1 0.6 3.7 0.7 7.4zm-205.1 17.9q-0.1-0.2-0.3-0.4c-0.5-0.4-1.9-1.5-2.8-2 0 0-3.9 3-6.2 9.5 0 0 7.4 3.4 9.4 1.5 0 0 4.1-2-0.1-8.6zm48.7 12q-0.1 0-0.1 0l-1.1-0.2q-1.7-0.5-3.5-0.3-5.8-0.3-11.6-1.1c-0.7 0-1.4-0.4-2.1-0.5-3.7-0.4-7.3-1.3-11-2q-4.3-0.8-11.8-3.5-0.2 0-0.1 0.1c0.7 4.1 1.2 6.8 4.8 8.4q9.7 4.3 20.4 5.5 3.6 0.8 7.2 0.3 0.2-0.1 0.6-0.4c3.4-0.6 6.4-3.3 8.3-6.1q0-0.1 0-0.2zm44.4 0.7c0-2.1-1.5-3.5-3.7-3.4q-3.4 0-12.9 0.5c-4.7 0.2-10.1 0.7-14.9 0.9q-4 0.2-6.1 3.1c-1.5 2.1-2.5 4.1-1 6.4q0.1 0.1 0.2 0.2 2.5 1.1 3.6 1.3c8.2 1.8 14.2 2 24.1 2.7 6.2 0.4 8.2-3.9 9.8-9q0-0.1 0.2-0.2c0.6-0.5 0.7-1.7 0.7-2.5zm37.5-46.1q4.8-7.4 9-15.1c0.1-0.2 0-0.3-0.1-0.4q0 0-0.1 0-3.6-1.3-7.3-1.9c-1.1-0.2-2.2-0.6-3.4-0.8q-3.1-0.4-6.3-0.7-1.1-0.5-2.3-0.4-12-1-24-0.5c-6.6 0.3-11.4 1.7-17 5q-15.3 8.7-25.6 21.7-1.3 1.6-2.4 3.3c0 0 0 0.2 0.1 0.2q0 0 0.1 0c5.9 0.6 11.6 2.2 17.5 3 3.2 0.5 6.6 1.2 9.7 1.5 9.5 0.9 17.1 1.5 26.3 1.4 9.6-0.1 16.4-3.2 22.2-10.9q0.5-0.8 3.6-5.4zm49.7-5.7q0-0.1-0.1-0.1c-5.6-8.3-14.2-12.6-24.3-11-0.8 0.1-1.5 0.5-2.3 0.8-11 3.7-18.8 17.5-21.9 27.9q-0.1 0.2 0.1 0.1l48.4-17.5c0.1 0 0.1-0.1 0.1-0.2z"/><path class="e" d="m215.3 74.4q-0.5-0.3-0.3-0.9 0.5 0.2 0.3 0.9z"/><path class="e" d="m216.8 80q-0.6-0.4-0.5-1.1 0.6 0.3 0.5 1.1z"/><path class="e" d="m217.8 96.3q-0.4 0.6-0.6-0.3-0.1-0.2-0.2-0.3c-2-1.7-4.5 0.2-5.7 1.9-3.4 4.5-5 11-2.4 16.3 0.5 0.9 1.2 1.3 1.9 1.9q0.2 0.1 0.4 0.1 1.8-0.6 3.3-1.9 0.3-0.3 0.1 0.1l-2.2 5.8q0 0.2-0.2 0.2c-2.7 1-5.9-1.7-7.1-3.8-4.6-7.7-0.9-23 8.5-25.7q1.7-0.8 3.4 0 0.2 0.3 0.8 0.4 0.8 2.7 0 5.3z"/><path fill-rule="evenodd" class="e" d="m164.8 121.7q-0.1 0.5 0.2 0.8 0.4 2.4 0.1 5.5c-0.9 8.1-4.7 16.3-11.3 21.1-10.3 7.6-20.3-1.2-20.8-12q-0.3-3.5 0-7.1c1-8 5.8-17.2 13.3-21.1 9.8-5 17.7 3.6 18.5 12.8zm-24.3 18.4c0.7 2.1 3.2 5.7 5.8 5.1 6.4-1.6 10.6-10 11.7-15.9 0.8-4.1 0.3-9.9-2.5-13.2-2.9-3.4-7.1-1.2-9.5 1.5-5.3 5.8-8 14.7-5.5 22.5z"/><path class="e" d="m164.8 121.7q0.5 0.2 0.2 0.8-0.3-0.3-0.2-0.8z"/><path class="e" d="m133 130q-0.3 3.6 0 7.1-0.4 0.1-0.4-0.3-0.3-3.4 0.4-6.8z"/><g clip-path="url(#cp1)" style="opacity:.3"><g style="mix-blend-mode:multiply"><path fill-rule="evenodd" class="f" d="m314.7 143.5c-1.9 1.1-4.5 0.4-5.7-1.6l-68.8-119.3-26.9 44.8 43.9 76.1-7.3 4.1-41.5-72-47.7 79.5 38.6 66.9-7.3 4.2-36.2-62.9-62.8 104.6c-0.8 1.3-2.2 2-3.6 2-0.8 0-1.5-0.2-2.2-0.6-2-1.2-2.6-3.7-1.4-5.7l65.2-108.6-21.5-37.3-55.9 93-7.1-4.3 58.2-97-71.2-123.5 7.2-4.2 68.9 119.5 23.2-38.7-71-123.2 7.2-4.1 68.7 119.1 59.9-99.7 7.1 4.3-37.7 62.9 21.5 37.3 27.4-45.6q0.1-0.9 0.5-1.6c0.8-1.3 2.2-2.1 3.6-2.1h0.5c1.5 0 2.9 0.8 3.6 2.1q0.5 0.8 0.6 1.7l71.6 124.2c1.1 2 0.5 4.5-1.6 5.7zm-111.1-76.2l-21.5-37.3-47.7 79.4 21.5 37.4z"/><path class="f" d="m145.6 61.4z"/><path class="f" d="m145.6 61.4l-22.6-38.7-16.4 25.8 22.6 38.8z"/><path class="f" d="m106.6 48.6v-0.1z"/><path class="f" d="m205.7 168z"/><path class="f" d="m166.7 155.2h0.1l-0.1-0.1z"/><path class="f" d="m166.8 155.2l22.5 38.7 16.4-25.9-22.6-38.7z"/><path class="f" d="m147.8 26.7l9.3 15.2 16.4-25.8-9.4-15.1z"/><path class="f" d="m173.5 16v0.1z"/><path class="f" d="m191.6 113.3l9.3 15.3 16.3-25.9-9.4-15z"/><path class="f" d="m217.3 102.7h-0.1z"/><path class="f" d="m284.7 3.7l-12.5-10.2-16.3 25.7 9.3 15.2z"/><path class="f" d="m161.5-4.4z"/><path class="f" d="m161.5-4.4l-9.4-15.1-16.3 25.7 9.3 15.3z"/><path class="f" d="m68.2 91l7.5 12.9 20.3-31-9.4-15-20.1 30.8z"/><path class="f" d="m96 72.9z"/><path class="f" d="m84 52.4v0.1z"/><path class="f" d="m74.6 37.4l-20 30.7 1.6 2.5 7.7 12.7 20.1-30.9z"/></g></g></svg>