<svg width="75" height="66" viewBox="0 0 75 66" fill="none" xmlns="http://www.w3.org/2000/svg">
<path d="M19.3925 26.5925C19.3937 28.296 20.0706 29.9295 21.2746 31.1346C22.4787 32.3393 24.1117 33.0173 25.8151 33.0198H31.8607C32.8167 33.0198 33.7004 33.5297 34.1784 34.358C34.6568 35.1862 34.6568 36.2063 34.1784 37.0346C33.7004 37.8625 32.8167 38.3728 31.8607 38.3728H15.9925C15.3225 38.3728 14.7032 38.7301 14.3683 39.3103C14.0333 39.8908 14.0333 40.6054 14.3683 41.1856C14.7033 41.7659 15.3225 42.1235 15.9925 42.1235H31.8607C34.1599 42.1235 36.2847 40.8967 37.4344 38.9053C38.584 36.9142 38.584 34.4608 37.4344 32.4693C36.2847 30.4782 34.1599 29.2515 31.8607 29.2515H25.8151C24.8591 29.2515 23.9754 28.7412 23.4974 27.913C23.0193 27.0851 23.0193 26.0646 23.4974 25.2366C23.9754 24.4084 24.8591 23.8981 25.8151 23.8981H29.5216C30.1916 23.8981 30.8105 23.5408 31.1455 22.9606C31.4805 22.3804 31.4805 21.6655 31.1455 21.0853C30.8105 20.5051 30.1916 20.1475 29.5216 20.1475H25.8151C24.1086 20.1499 22.4732 20.8305 21.2685 22.0392C20.0638 23.2479 19.3891 24.8858 19.3925 26.5924V26.5925Z" fill="#0273DB"/>
<path d="M21.3854 9.3613C21.4542 9.46502 21.5328 9.56162 21.6208 9.64986C21.7105 9.74182 21.8102 9.82386 21.918 9.89383C22.0223 9.96226 22.1322 10.0217 22.2465 10.0716C22.3638 10.1208 22.4858 10.1579 22.6106 10.1824C22.7348 10.2065 22.8611 10.2183 22.9877 10.218C23.1128 10.2183 23.2379 10.2065 23.3605 10.1824C23.4856 10.1582 23.6076 10.1208 23.7246 10.0716C23.8407 10.0223 23.9522 9.96288 24.0574 9.89383C24.1652 9.82355 24.2649 9.74181 24.355 9.64986C24.4441 9.55914 24.5259 9.46099 24.599 9.35696C24.6671 9.2517 24.725 9.14023 24.772 9.02382C24.8206 8.90957 24.8578 8.79068 24.8832 8.66869C24.9107 8.54205 24.9244 8.41263 24.9231 8.2826C24.9213 7.77328 24.7185 7.28533 24.3593 6.92429C24.2708 6.83419 24.1726 6.75369 24.0664 6.68465C23.9618 6.61437 23.8503 6.55492 23.7336 6.50724C23.6162 6.45739 23.4942 6.42023 23.3695 6.39609C23.1218 6.34779 22.867 6.34779 22.6193 6.39609C22.4945 6.42024 22.3725 6.45739 22.2555 6.50724C22.1403 6.55523 22.0301 6.61468 21.927 6.68465C21.8189 6.75462 21.7192 6.83667 21.6294 6.92893C21.5406 7.01594 21.4619 7.11284 21.3944 7.21749C21.322 7.32307 21.261 7.43608 21.2124 7.55466C21.1644 7.67077 21.1272 7.79121 21.1012 7.91413C21.0498 8.16461 21.0498 8.42283 21.1012 8.67331C21.1266 8.79499 21.1638 8.91388 21.2124 9.02844C21.2579 9.14517 21.3161 9.25694 21.3855 9.36128L21.3854 9.3613Z" fill="#0273DB"/>
<path d="M17.4213 8.2906C17.4213 9.3569 16.5569 10.2213 15.4905 10.2213C14.4242 10.2213 13.5598 9.3569 13.5598 8.2906C13.5598 7.22429 14.4242 6.35986 15.4905 6.35986C16.5569 6.35986 17.4213 7.22429 17.4213 8.2906Z" fill="#0273DB"/>
<path d="M7.39952 11.6323C7.73638 11.8852 8.14569 12.0221 8.56704 12.023C9.18255 12.0218 9.76088 11.7273 10.1238 11.2298C10.4867 10.7325 10.5904 10.0916 10.4034 9.50519C10.2164 8.91847 9.76063 8.45656 9.17667 8.26086C8.59273 8.0655 7.95057 8.16055 7.44805 8.5163C6.94553 8.87205 6.64307 9.44635 6.63348 10.0619C6.62388 10.6777 6.90842 11.2611 7.39947 11.6322L7.39952 11.6323Z" fill="#0273DB"/>
<path d="M6.28159 16.0281C5.91996 16.3891 5.71685 16.8795 5.71778 17.3907C5.71902 17.5188 5.73233 17.6467 5.75772 17.7724C5.78311 17.8941 5.82026 18.013 5.86856 18.1275C6.00974 18.4886 6.25743 18.7982 6.57881 19.0152C6.68377 19.0849 6.79524 19.1443 6.91165 19.1926C7.02961 19.2403 7.15129 19.2771 7.27576 19.3038C7.908 19.4214 8.55758 19.2223 9.01548 18.7709C9.10434 18.6836 9.18298 18.5867 9.25079 18.4823C9.32509 18.3777 9.38609 18.2644 9.43284 18.1452C9.48145 18.0291 9.5186 17.9089 9.54368 17.7857C9.56876 17.6612 9.58239 17.5349 9.58362 17.4083C9.5827 17.2816 9.56907 17.1553 9.54368 17.0312C9.51768 16.9083 9.48052 16.7878 9.43284 16.6714C9.38547 16.5562 9.32602 16.446 9.25543 16.3429C9.18639 16.237 9.1062 16.1385 9.01548 16.05C8.92724 15.9596 8.82878 15.8791 8.72259 15.8104C8.61825 15.7385 8.50678 15.6775 8.38975 15.6283C8.2721 15.5803 8.15042 15.5432 8.02596 15.5175C7.77796 15.4701 7.52345 15.4701 7.27576 15.5175C7.15099 15.5422 7.029 15.5794 6.91165 15.6283C6.79585 15.6751 6.68563 15.7345 6.58315 15.806C6.47416 15.8676 6.37261 15.9419 6.28158 16.028L6.28159 16.0281Z" fill="#0273DB"/>
<path d="M35.4164 20.2718C35.8675 20.2743 36.3012 20.0987 36.6235 19.7836C38.7763 17.6664 43.0684 12.8014 43.0684 7.6478C43.0684 5.61886 42.2622 3.67299 40.8268 2.23851C39.3918 0.804032 37.4455 -0.00126669 35.4163 1.49559e-06H34.9237C32.975 0.141809 31.1529 1.01804 29.8253 2.45188C28.4979 3.88541 27.7645 5.7697 27.7728 7.72342C27.8217 12.8457 32.0783 17.666 34.2177 19.7696C34.5357 20.0879 34.9663 20.2681 35.4162 20.2712L35.4164 20.2718ZM32.3583 7.64782C32.3583 6.83697 32.6803 6.05886 33.254 5.48548C33.8274 4.91176 34.6052 4.58974 35.4164 4.58974C36.2275 4.58974 37.0053 4.91174 37.5787 5.48548C38.1524 6.05889 38.4747 6.83697 38.4747 7.64782C38.4747 8.45898 38.1524 9.23678 37.5787 9.81047C37.0053 10.3839 36.2275 10.7062 35.4164 10.7062C34.6052 10.7062 33.8274 10.3839 33.254 9.81047C32.6803 9.23675 32.3583 8.45898 32.3583 7.64782Z" fill="#0273DB"/>
<path d="M9.63994e-05 29.7792C0.0490159 34.9191 4.30559 39.7217 6.44074 41.8254C6.7612 42.1415 7.19342 42.3189 7.64362 42.3189C8.0938 42.3189 8.52572 42.1415 8.84649 41.8254C10.9992 39.7082 15.2914 34.8432 15.2914 29.6896V29.6899C15.2902 27.6632 14.4845 25.7197 13.0513 24.2865C11.6181 22.8533 9.67462 22.0477 7.6479 22.0464H7.1553C5.20412 22.1873 3.37951 23.0641 2.05101 24.4998C0.722741 25.9354 -0.0104297 27.8226 0.000112122 29.7788L9.63994e-05 29.7792ZM7.6479 26.6276C8.45906 26.6276 9.23685 26.9499 9.81023 27.5233C10.384 28.0967 10.706 28.8748 10.706 29.6856C10.706 30.4968 10.384 31.2749 9.81023 31.8483C9.23682 32.4217 8.45906 32.744 7.6479 32.744C6.83673 32.744 6.05894 32.4217 5.48556 31.8483C4.91184 31.2749 4.58951 30.4968 4.58951 29.6856C4.58951 28.8748 4.91181 28.0967 5.48556 27.5233C6.05897 26.9499 6.83673 26.6276 7.6479 26.6276Z" fill="#0273DB"/>
<path d="M44.4097 42.5166C44.962 42.5166 45.4097 42.0688 45.4097 41.5166V33.8587H46.53C47.0823 33.8587 47.53 33.411 47.53 32.8587V32.6059C47.53 32.0536 47.0823 31.6059 46.53 31.6059H45.4097V29.5519C45.4097 28.8078 44.8065 28.2046 44.0624 28.2046C43.3183 28.2046 42.7152 28.8078 42.7152 29.5519V31.6059H41.6169C41.0647 31.6059 40.6169 32.0536 40.6169 32.6059V32.8587C40.6169 33.411 41.0647 33.8587 41.6169 33.8587H42.7152V41.5166C42.7152 42.0688 43.1629 42.5166 43.7152 42.5166H44.4097Z" fill="#0273DB"/>
<path d="M48.4567 37.0391C48.4567 40.4404 50.9083 42.7816 54.2876 42.7816C57.6668 42.7816 60.1184 40.4404 60.1184 37.0391C60.1184 33.6378 57.6668 31.2967 54.2876 31.2967C50.9083 31.2967 48.4567 33.6378 48.4567 37.0391ZM51.1513 37.0391C51.1513 35.0514 52.4323 33.7041 54.2876 33.7041C56.1428 33.7041 57.4238 35.0514 57.4238 37.0391C57.4238 39.0269 56.1428 40.3742 54.2876 40.3742C52.4323 40.3742 51.1513 39.0269 51.1513 37.0391Z" fill="#0273DB"/>
<path d="M62.2542 46.5743C62.2542 47.1266 62.7019 47.5743 63.2542 47.5743H63.9487C64.501 47.5743 64.9487 47.1266 64.9487 46.5743V41.0589C65.6334 42.1632 67.0469 42.8037 68.6813 42.8037C71.928 42.8037 73.7833 40.33 73.7833 36.9287C73.7833 33.5053 71.7513 31.2746 68.6813 31.2746C67.0248 31.2746 65.5892 32.0034 64.9266 33.2624L64.8453 32.4998C64.7911 31.9915 64.3622 31.6059 63.8509 31.6059H63.2542C62.7019 31.6059 62.2542 32.0536 62.2542 32.6059V46.5743ZM64.9708 37.0612C64.9708 35.0955 66.1856 33.7262 68.0408 33.7262C69.9403 33.7262 71.0667 35.1176 71.0667 37.0612C71.0667 39.0048 69.9403 40.3742 68.0408 40.3742C66.1856 40.3742 64.9708 39.0269 64.9708 37.0612Z" fill="#0273DB"/>
<path d="M15.2065 64.4972C15.2065 65.0495 15.6542 65.4972 16.2065 65.4972H16.901C17.4533 65.4972 17.901 65.0495 17.901 64.4972V58.9817C18.5857 60.086 19.9992 60.7265 21.6336 60.7265C24.8803 60.7265 26.7356 58.2528 26.7356 54.8515C26.7356 51.4281 24.7036 49.1974 21.6336 49.1974C19.9771 49.1974 18.5415 49.9263 17.8789 51.1852L17.7976 50.4226C17.7434 49.9143 17.3145 49.5287 16.8032 49.5287H16.2065C15.6542 49.5287 15.2065 49.9764 15.2065 50.5287V64.4972ZM17.9231 54.984C17.9231 53.0184 19.1379 51.649 20.9931 51.649C22.8925 51.649 24.019 53.0404 24.019 54.984C24.019 56.9277 22.8925 58.297 20.9931 58.297C19.1379 58.297 17.9231 56.9497 17.9231 54.984Z" fill="#0273DB"/>
<path d="M30.0596 54.578C30.0596 57.9794 32.5111 60.3205 35.8904 60.3205C39.2696 60.3205 41.7212 57.9794 41.7212 54.578C41.7212 51.1767 39.2696 48.8356 35.8904 48.8356C32.5111 48.8356 30.0596 51.1767 30.0596 54.578ZM32.7541 54.578C32.7541 52.5903 34.0351 51.243 35.8904 51.243C37.7456 51.243 39.0266 52.5903 39.0266 54.578C39.0266 56.5658 37.7456 57.9131 35.8904 57.9131C34.0351 57.9131 32.7541 56.5658 32.7541 54.578Z" fill="#0273DB"/>
<path d="M47.2393 46.9786C48.1228 46.9786 48.8516 46.2498 48.8516 45.3442C48.8516 44.4387 48.1228 43.7319 47.2393 43.7319C46.3117 43.7319 45.5828 44.4387 45.5828 45.3442C45.5828 46.2498 46.3117 46.9786 47.2393 46.9786ZM45.892 59.0759C45.892 59.6281 46.3397 60.0759 46.892 60.0759H47.5866C48.1389 60.0759 48.5866 59.6282 48.5866 59.0759V50.1652C48.5866 49.6129 48.1389 49.1652 47.5866 49.1652H46.892C46.3397 49.1652 45.892 49.6129 45.892 50.1652V59.0759Z" fill="#0273DB"/>
<path d="M55.1824 60.0759C55.7347 60.0759 56.1824 59.6282 56.1824 59.0759V54.2009C56.1824 52.434 57.1984 51.2855 58.8548 51.2855C60.2463 51.2855 61.1518 52.1689 61.1518 54.0021V60.0759H63.8464V53.3616C63.8464 50.5345 62.4328 48.8339 59.6941 48.8339C58.2143 48.8339 56.8891 49.4744 56.2045 50.5787L56.1157 50.0108C56.0397 49.524 55.6204 49.1652 55.1277 49.1652H54.4878C53.9356 49.1652 53.4878 49.6129 53.4878 50.1652V59.0759C53.4878 59.6281 53.9356 60.0759 54.4878 60.0759H55.1824Z" fill="#0273DB"/>
<path d="M71.8797 60.0758C72.432 60.0758 72.8797 59.6281 72.8797 59.0758V51.4179H74C74.5523 51.4179 75 50.9702 75 50.4179V50.1651C75 49.6128 74.5523 49.1651 74 49.1651H72.8797V47.1111C72.8797 46.367 72.2765 45.7638 71.5324 45.7638C70.7884 45.7638 70.1852 46.367 70.1852 47.1111V49.1651H69.0869C68.5347 49.1651 68.0869 49.6128 68.0869 50.1651V50.4179C68.0869 50.9702 68.5347 51.4179 69.0869 51.4179H70.1852V59.0758C70.1852 59.6281 70.6329 60.0758 71.1852 60.0758H71.8797Z" fill="#0273DB"/>
</svg>
