<svg width="30" height="30" viewBox="0 0 30 30" fill="none" xmlns="http://www.w3.org/2000/svg">
<path d="M29.2685 9.74893H29.2611H0.731439C0.404099 9.74893 0.116556 9.54201 0.0277989 9.24233C-0.0615 8.94216 0.0693862 8.62255 0.347993 8.45934L14.6128 0.10346C14.8483 -0.0344866 15.1445 -0.0344866 15.3795 0.10346L29.5849 8.42452C29.8306 8.53672 30 8.77593 30 9.05258C30 9.43727 29.6727 9.74909 29.2685 9.74909L29.2685 9.74893ZM3.31617 8.35641H26.6768L14.9965 1.51441L3.31617 8.35641ZM7.1328 25.8223H4.20661C3.80273 25.8223 3.47515 25.5102 3.47515 25.126V11.1418C3.47515 10.7573 3.803 10.4455 4.20661 10.4455H7.1328C7.53668 10.4455 7.86426 10.7576 7.86426 11.1418V25.126C7.86426 25.5107 7.53642 25.8223 7.1328 25.8223ZM4.93808 24.4295H6.40101V11.8379H4.93808V24.4295ZM13.3507 25.8223H10.4245C10.0206 25.8223 9.69302 25.5102 9.69302 25.126V11.1418C9.69302 10.7573 10.0209 10.4455 10.4245 10.4455H13.3507C13.7546 10.4455 14.0821 10.7576 14.0821 11.1418V25.126C14.0821 25.5107 13.7543 25.8223 13.3507 25.8223ZM11.156 24.4295H12.6189L12.6191 11.8379H11.1562L11.156 24.4295ZM19.5685 25.8223H16.6424C16.2385 25.8223 15.9109 25.5102 15.9109 25.126V11.1418C15.9109 10.7573 16.2387 10.4455 16.6424 10.4455H19.5685C19.9724 10.4455 20.3 10.7576 20.3 11.1418V25.126C20.3 25.5107 19.9724 25.8223 19.5685 25.8223ZM17.3738 24.4295H18.8368L18.837 11.8379H17.3741L17.3738 24.4295ZM25.7864 25.8223H22.8602C22.4564 25.8223 22.1288 25.5102 22.1288 25.126V11.1418C22.1288 10.7573 22.4566 10.4455 22.8602 10.4455H25.7864C26.1903 10.4455 26.5179 10.7576 26.5179 11.1418V25.126C26.5179 25.5107 26.1903 25.8223 25.7864 25.8223ZM23.592 24.4295H25.0549V11.8379H23.592V24.4295ZM28.5297 27.2149C28.5297 26.8304 28.2018 26.5186 27.7982 26.5186H2.19465C1.79076 26.5186 1.46318 26.8307 1.46318 27.2149C1.46318 27.5993 1.79103 27.9111 2.19465 27.9111H27.7982C28.2021 27.9111 28.5297 27.5996 28.5297 27.2149ZM29.9928 29.304C29.9928 28.9195 29.665 28.6077 29.2614 28.6077L0.731718 28.6075C0.327836 28.6075 0.000254036 28.9195 0.000254036 29.3037C0.000254036 29.6882 0.328103 30 0.731718 30H29.2614C29.665 30.0002 29.9928 29.6887 29.9928 29.304V29.304Z" fill="#E88B71"/>
</svg>
