<svg width="23" height="29" viewBox="0 0 23 29" fill="none" xmlns="http://www.w3.org/2000/svg">
<path d="M18.7161 20.5384C19.9806 20.5384 21.168 20.0167 21.9701 19.1074C22.7653 18.2078 23.1182 17.0372 22.965 15.8107C22.8201 14.6394 22.1783 13.5824 21.2214 12.9036C21.4402 12.3865 21.5554 11.8273 21.5554 11.2631C21.5554 9.67104 20.6652 8.2336 19.2627 7.51865C19.069 5.3824 17.2541 3.69304 15.0781 3.69304C12.8758 3.69304 11.0562 5.4056 10.8874 7.56923C10.2137 7.9359 9.67421 8.49347 9.28873 9.14582C8.43416 6.34108 7.46252 3.21823 6.72873 0.873933C6.56242 0.343948 6.055 -0.0215652 5.52289 0.000988649C4.9607 0.00880946 4.49837 0.36351 4.34562 0.90479C2.86237 6.13816 0.335751 15.1296 0.0783548 16.5488C-0.186638 18.0616 0.227411 19.6043 1.21582 20.7797C2.20289 21.9552 3.64975 22.6301 5.18541 22.6301H5.46581V27.9058H0.675042C0.406369 27.9058 0.188304 28.1245 0.188304 28.393C0.188304 28.6616 0.406369 28.8802 0.675042 28.8802H20.8186C21.0873 28.8802 21.3058 28.6614 21.3058 28.393C21.3058 28.1243 21.087 27.9058 20.8186 27.9058H15.7853V20.5384L18.7161 20.5384ZM5.95289 6.88544C5.68422 6.88544 5.46615 7.1035 5.46615 7.37217V11.8L3.90977 10.2554C3.71838 10.0651 3.4113 10.0676 3.22149 10.2577C3.03194 10.4483 3.0331 10.7568 3.22379 10.9459L5.46586 13.1712V16.3681L3.52512 14.5981C3.32614 14.4156 3.01699 14.4304 2.83755 14.6296C2.65629 14.8281 2.67055 15.1359 2.86906 15.3171L5.46587 17.6866V21.656H5.18547C3.93824 21.656 2.76326 21.1092 1.96116 20.1537C1.15905 19.1993 0.822515 17.9467 1.03716 16.72C1.29571 15.2927 4.09217 5.37008 5.28234 1.17024C5.33295 0.993122 5.46774 0.972417 5.54089 0.97472C5.60392 0.97472 5.74585 0.994962 5.79944 1.16541C7.06092 5.19619 10.0221 14.713 10.2627 16.0297C10.3584 16.5537 10.4083 17.06 10.4117 17.5367C10.4196 18.5931 10.0023 19.5998 9.237 20.3713C8.49608 21.1178 7.4881 21.5539 6.43938 21.6265L6.43961 15.1643L8.43212 13.2382C8.6258 13.0517 8.63063 12.7432 8.44408 12.55C8.25684 12.3556 7.94975 12.3503 7.75581 12.538L6.43956 13.8105V7.37236C6.43956 7.10391 6.22149 6.88585 5.95282 6.88585L5.95289 6.88544ZM14.8107 27.9058H6.4393V22.6007C7.74607 22.5264 9.00525 21.986 9.92743 21.0567C10.1598 20.8228 10.3645 20.57 10.5437 20.3041C10.975 20.4448 11.4178 20.5385 11.8747 20.5385H14.8103L14.8107 27.9058ZM15.2981 6.88544C15.0295 6.88544 14.8109 7.1035 14.8109 7.37217V11.7993L12.579 9.58463C12.3883 9.39439 12.0805 9.39555 11.8907 9.58693C11.7012 9.77762 11.7023 10.0861 11.893 10.2752L14.8107 13.1713V16.3677L12.87 14.5981C12.6691 14.4157 12.3625 14.4304 12.1824 14.6296C12.0011 14.8281 12.0154 15.1359 12.2139 15.3172L14.8107 17.6861V19.5643H11.8751C11.5802 19.5643 11.2936 19.5127 11.0123 19.4373C11.2616 18.8373 11.3907 18.1919 11.3856 17.5296C11.3821 16.9971 11.3262 16.4338 11.2209 15.855C11.1116 15.2576 10.5028 13.1607 9.7248 10.5828C9.72963 10.5685 9.73975 10.5575 9.7432 10.5425C9.96541 9.56604 10.6458 8.73538 11.5627 8.31999C11.7357 8.24155 11.8472 8.06972 11.8486 7.87971C11.8587 6.1078 13.3074 4.66671 15.0782 4.66671C16.8301 4.66671 18.2777 6.09243 18.3048 7.84479C18.3083 8.03801 18.4249 8.21077 18.6032 8.28576C19.8046 8.79136 20.5807 9.96039 20.5807 11.2634C20.5807 11.8167 20.4381 12.3628 20.1672 12.8435C20.1041 12.9565 20.0876 13.0901 20.1232 13.2148C20.1589 13.3397 20.2421 13.4453 20.3562 13.5083C21.2582 14.0081 21.8728 14.9138 22 15.9323C22.1164 16.8773 21.848 17.7758 21.2407 18.4627C20.6226 19.1626 19.7027 19.5643 18.7163 19.5643H15.7855V15.164L18.2374 12.7933C18.4299 12.6061 18.4359 12.2983 18.248 12.1051C18.0614 11.9102 17.7537 11.9066 17.5597 12.0931L15.7853 13.8087V7.37171C15.7853 7.1035 15.5667 6.88543 15.2981 6.88543L15.2981 6.88544Z" fill="#E88B71"/>
</svg>
