<svg width="40" height="40" viewBox="0 0 40 40" fill="none" xmlns="http://www.w3.org/2000/svg">
<path d="M34.6183 5.93906C35.5848 6.0901 36.3081 6.5224 36.7882 7.23594C37.8036 8.74531 38.8429 10.2833 39.9063 11.85C39.9673 11.9395 40 12.0463 40 12.1562C40 12.9969 39.9979 13.8276 39.9937 14.6484C39.9906 15.2672 39.8 15.8177 39.422 16.3C38.6284 17.3125 37.5713 17.6266 36.2508 17.2422C36.2416 17.2395 36.232 17.239 36.2226 17.2407C36.2132 17.2424 36.2043 17.2464 36.1967 17.2521C36.1891 17.2579 36.183 17.2654 36.1788 17.274C36.1746 17.2826 36.1725 17.292 36.1727 17.3016C36.1768 20.6974 36.1742 24.0802 36.1649 27.45C36.1638 27.7417 36.1086 27.963 35.9993 28.1141C35.7743 28.4234 35.4879 28.4141 35.1401 28.0859C35.0961 28.0444 35.0611 27.9943 35.0372 27.9387C35.0133 27.8831 35.001 27.8231 35.001 27.7625V16.65C35.001 16.5958 34.9792 16.5849 34.9354 16.6172C33.4857 17.6807 32.1266 17.6318 30.8582 16.4703C30.8373 16.4507 30.8098 16.4396 30.7811 16.4393C30.7525 16.439 30.7248 16.4495 30.7035 16.4688C29.283 17.7563 27.8963 17.7536 26.5434 16.4609C26.5285 16.4462 26.5085 16.4378 26.4875 16.4375C26.4665 16.4372 26.4463 16.4451 26.4309 16.4594C25.0916 17.7365 23.6899 17.7396 22.2256 16.4688C22.2017 16.4482 22.1708 16.4377 22.1393 16.4394C22.1079 16.4412 22.0783 16.455 22.0569 16.4781C21.5059 17.0688 20.8477 17.3833 20.0823 17.4219C19.2595 17.4635 18.5352 17.1443 17.9093 16.4641C17.8953 16.4491 17.876 16.4402 17.8556 16.4394C17.8351 16.4385 17.8151 16.4457 17.7999 16.4594C16.3971 17.7615 14.9901 17.7615 13.5789 16.4594C13.5632 16.4449 13.5427 16.4369 13.5215 16.4369C13.5003 16.4369 13.4801 16.4449 13.4649 16.4594C12.0714 17.7667 10.6769 17.7667 9.2814 16.4594C9.26607 16.4451 9.24581 16.4372 9.22485 16.4375C9.20388 16.4378 9.18385 16.4462 9.16892 16.4609C7.85878 17.7266 6.50802 17.775 5.11664 16.6063C5.04374 16.5458 5.00729 16.563 5.00729 16.6578C5.00729 22.0109 5.00729 30.4688 5.00729 35.7812C5.00729 36.0229 4.92189 36.2047 4.75109 36.3266C4.58967 36.4411 4.41418 36.4661 4.22464 36.4016C3.96532 36.3141 3.83566 36.0943 3.83566 35.7422C3.83566 30.6516 3.83566 22.4182 3.83566 17.2922C3.83575 17.2832 3.83363 17.2743 3.82945 17.2663C3.82528 17.2583 3.81919 17.2514 3.81169 17.2462C3.80419 17.241 3.7955 17.2376 3.78635 17.2364C3.7772 17.2351 3.76786 17.2361 3.75911 17.2391C3.38107 17.3682 3.00614 17.4271 2.63435 17.4156C2.27609 17.4042 1.91783 17.3083 1.55957 17.1281C0.667049 16.6802 0.1583 15.9615 0.0333264 14.9719C0.0083316 14.7802 -0.00260362 14.2776 0.000520725 13.4641C0.00156217 13.0661 0.011456 12.6687 0.0302021 12.2719C0.0406166 12.0615 0.105186 11.8667 0.223912 11.6875C1.17476 10.25 2.13445 8.81823 3.103 7.39219C3.64976 6.58906 4.39648 6.10885 5.34316 5.95156C5.37005 5.94708 5.39445 5.93311 5.41193 5.91219C5.42941 5.89126 5.43882 5.86477 5.43845 5.8375C5.42074 4.54688 5.42751 3.28073 5.45876 2.03906C5.47126 1.53698 5.55301 1.15729 5.70402 0.9C6.05603 0.3 6.65695 0 7.50677 0C15.8769 0 24.2475 0 32.6187 0C33.3977 0 33.9549 0.293229 34.2902 0.879688C34.4506 1.15885 34.5386 1.5776 34.5543 2.13594C34.5876 3.37448 34.5845 4.6125 34.5449 5.85C34.5439 5.87107 34.5508 5.8918 34.5644 5.90822C34.5779 5.92464 34.5971 5.93562 34.6183 5.93906ZM32.1438 3.70312C32.0532 3.86458 31.9152 3.94531 31.7298 3.94531H6.73037C6.69805 3.94531 6.66706 3.95815 6.64421 3.98101C6.62136 4.00387 6.60852 4.03486 6.60852 4.06719V5.8125C6.60852 5.83529 6.61757 5.85715 6.63368 5.87327C6.6498 5.88938 6.67165 5.89844 6.69444 5.89844L33.2748 5.90781C33.2861 5.90781 33.2973 5.90571 33.3077 5.90163C33.3181 5.89754 33.3276 5.89156 33.3356 5.88402C33.3436 5.87647 33.3499 5.86751 33.3542 5.85766C33.3585 5.8478 33.3608 5.83723 33.3608 5.82656L33.3764 4.05156C33.3763 4.03096 33.3675 4.01116 33.3518 3.9963C33.336 3.98144 33.3146 3.97269 33.292 3.97187C31.6049 3.91771 30.5733 3.90885 30.1974 3.94531C29.9057 3.97344 29.6803 3.91719 29.5209 3.77656C29.3553 3.62969 29.3007 3.43646 29.3569 3.19687C29.4246 2.91458 29.6397 2.77344 30.0021 2.77344C31.5372 2.77344 32.6338 2.76458 33.292 2.74688C33.3135 2.74615 33.3339 2.73757 33.3492 2.72282C33.3645 2.70807 33.3736 2.68823 33.3748 2.66719C33.3915 2.3776 33.3899 2.0875 33.3701 1.79688C33.3555 1.57292 33.2707 1.40521 33.1155 1.29375C33.0124 1.21875 32.8478 1.18125 32.6218 1.18125C24.1361 1.16562 15.6499 1.16562 7.16309 1.18125C6.82566 1.18229 6.65226 1.33646 6.64289 1.64375L6.61008 2.69219C6.60966 2.70269 6.61153 2.71317 6.61558 2.72299C6.61963 2.73282 6.62577 2.7418 6.63365 2.74938C6.64152 2.75697 6.65097 2.76301 6.66141 2.76714C6.67186 2.77128 6.68309 2.77342 6.69444 2.77344C13.366 2.77344 24.6891 2.77344 31.2909 2.77344C31.6023 2.77344 31.8303 2.80833 31.9751 2.87812C32.3063 3.0375 32.3625 3.3125 32.1438 3.70312ZM18.8357 7.20156L18.5029 11.4813C18.502 11.4916 18.5034 11.502 18.5068 11.5118C18.5103 11.5217 18.5158 11.5307 18.523 11.5383C18.5302 11.546 18.5389 11.5521 18.5486 11.5562C18.5584 11.5604 18.5689 11.5625 18.5795 11.5625H21.3945C21.4081 11.5625 21.4216 11.5598 21.4341 11.5545C21.4465 11.5492 21.4578 11.5415 21.467 11.5318C21.4763 11.5221 21.4833 11.5107 21.4878 11.4982C21.4923 11.4857 21.494 11.4725 21.4929 11.4594L21.1555 7.17812C21.1539 7.15697 21.1441 7.13723 21.1281 7.12299C21.1121 7.10874 21.0912 7.10107 21.0696 7.10156L18.9388 7.10781C18.9123 7.10809 18.887 7.1179 18.8679 7.13529C18.8488 7.15268 18.8373 7.17636 18.8357 7.20156ZM35.4994 7.54531C35.138 7.25677 34.7245 7.11615 34.259 7.12344C33.8966 7.1276 33.5539 7.1151 33.2311 7.08594C33.1353 7.07656 33.1098 7.11458 33.1545 7.2L35.3947 11.4469C35.4132 11.4818 35.4407 11.5111 35.4743 11.5315C35.5079 11.5518 35.5463 11.5626 35.5853 11.5625H38.166C38.2452 11.5625 38.2629 11.5297 38.2191 11.4641C37.3745 10.1932 36.5309 8.95469 35.6884 7.74844C35.6342 7.67031 35.5712 7.6026 35.4994 7.54531ZM4.11685 7.98438C3.3316 9.13958 2.54947 10.2974 1.77046 11.4578C1.73922 11.5047 1.75068 11.5281 1.80483 11.5281L4.47146 11.5375C4.49369 11.5375 4.51589 11.5309 4.5357 11.5182C4.55551 11.5055 4.57218 11.4874 4.58394 11.4656L6.8694 7.16563C6.87235 7.15967 6.8738 7.15306 6.87361 7.14642C6.87342 7.13979 6.87159 7.13335 6.86831 7.12771C6.86502 7.12207 6.86038 7.11743 6.85483 7.11422C6.84928 7.11101 6.843 7.10934 6.8366 7.10938C6.42418 7.10938 6.00969 7.10938 5.59311 7.10938C5.00573 7.10938 4.51364 7.40104 4.11685 7.98438ZM7.92699 7.725C7.54374 8.33958 6.88138 9.58229 5.93991 11.4531C5.93592 11.4609 5.93399 11.4696 5.93431 11.4784C5.93462 11.4872 5.93716 11.4957 5.9417 11.5032C5.94624 11.5107 5.95261 11.517 5.96023 11.5213C5.96784 11.5257 5.97644 11.528 5.98521 11.5281L8.66746 11.5578C8.71835 11.5582 8.76868 11.5417 8.81169 11.5104C8.8547 11.4791 8.88832 11.4346 8.90804 11.3828L10.4921 7.18437C10.4951 7.17597 10.4961 7.16697 10.495 7.15812C10.494 7.14927 10.4908 7.14084 10.486 7.13351C10.4811 7.12618 10.4745 7.12017 10.4669 7.11597C10.4593 7.11177 10.4508 7.10951 10.4421 7.10938C10.0213 7.10938 9.60321 7.09844 9.18767 7.07656C8.63466 7.0474 8.21443 7.26354 7.92699 7.725ZM11.7215 7.39687L10.1094 11.4859C10.106 11.4945 10.1049 11.5038 10.1059 11.5129C10.107 11.522 10.1103 11.5308 10.1156 11.5383C10.1208 11.5459 10.1278 11.552 10.136 11.5562C10.1442 11.5605 10.1533 11.5626 10.1625 11.5625L12.9666 11.5531C12.9882 11.5532 13.0093 11.5456 13.0263 11.5317C13.0434 11.5178 13.0553 11.4983 13.0603 11.4766L14.0367 7.18906C14.039 7.17961 14.0392 7.16975 14.0371 7.16021C14.0349 7.15068 14.0306 7.14173 14.0245 7.13405C14.0183 7.12637 14.0104 7.12015 14.0014 7.11587C13.9924 7.1116 13.9826 7.10938 13.9726 7.10938H12.1605C11.9439 7.10938 11.7975 7.20521 11.7215 7.39687ZM15.2848 7.23594L14.2866 11.4797C14.2842 11.4894 14.2841 11.4995 14.2862 11.5092C14.2883 11.519 14.2926 11.5281 14.2988 11.5359C14.305 11.5438 14.3129 11.5501 14.3218 11.5544C14.3308 11.5588 14.3407 11.561 14.3507 11.5609L17.2016 11.5359C17.2236 11.536 17.2448 11.5278 17.2608 11.5129C17.2768 11.4981 17.2863 11.4778 17.2875 11.4563L17.6078 7.19688C17.6086 7.18685 17.6074 7.17675 17.6042 7.16722C17.601 7.15768 17.5959 7.1489 17.5892 7.14143C17.5824 7.13396 17.5742 7.12795 17.5651 7.12378C17.5559 7.11961 17.546 7.11736 17.5359 7.11719L15.4473 7.10938C15.4096 7.1093 15.373 7.12177 15.3435 7.14475C15.314 7.16773 15.2933 7.19987 15.2848 7.23594ZM22.3896 7.21406L22.702 11.4797C22.7036 11.5018 22.7135 11.5225 22.7298 11.5376C22.746 11.5526 22.7674 11.561 22.7895 11.5609L25.6389 11.5359C25.6483 11.5361 25.6576 11.5339 25.6661 11.5297C25.6746 11.5256 25.682 11.5194 25.6879 11.5117C25.6938 11.5041 25.6979 11.4951 25.6999 11.4855C25.702 11.4759 25.702 11.4659 25.6999 11.4563L24.7485 7.29688C24.7364 7.24373 24.7062 7.19624 24.6628 7.16218C24.6194 7.12812 24.5653 7.1095 24.5095 7.10938L22.4786 7.11719C22.4663 7.11737 22.4542 7.12006 22.443 7.1251C22.4317 7.13013 22.4216 7.1374 22.4133 7.14647C22.405 7.15553 22.3986 7.1662 22.3945 7.17782C22.3904 7.18945 22.3888 7.20178 22.3896 7.21406ZM27.9431 7.13438L26.0279 7.11719C26.0185 7.11708 26.0092 7.1192 26.0007 7.1234C25.9923 7.12759 25.9848 7.13375 25.979 7.14141C25.9731 7.14907 25.969 7.15803 25.9669 7.16764C25.9648 7.17724 25.9649 7.18724 25.967 7.19688L26.9277 11.4563C26.933 11.4793 26.9455 11.4999 26.963 11.5146C26.9806 11.5294 27.0023 11.5374 27.0246 11.5375H29.8162C29.8252 11.5377 29.8341 11.5356 29.8421 11.5314C29.8501 11.5271 29.857 11.5209 29.8622 11.5133C29.8674 11.5056 29.8708 11.4967 29.872 11.4874C29.8733 11.478 29.8723 11.4684 29.8693 11.4594C29.4444 10.2583 28.9971 9.06563 28.5274 7.88125C28.4024 7.56354 28.254 7.33229 28.0822 7.1875C28.0427 7.15416 27.9936 7.1354 27.9431 7.13438ZM31.6189 7.27031C31.4763 7.16302 31.3153 7.10938 31.1362 7.10938H29.585C29.5758 7.10927 29.5667 7.11141 29.5585 7.11563C29.5504 7.11984 29.5433 7.126 29.5381 7.13355C29.5329 7.14111 29.5296 7.14984 29.5285 7.15897C29.5274 7.1681 29.5285 7.17736 29.5319 7.18594L31.1362 11.4328C31.151 11.471 31.177 11.5037 31.2107 11.5269C31.2444 11.55 31.2843 11.5624 31.3252 11.5625H34.0466C34.0563 11.5627 34.0659 11.5603 34.0745 11.5555C34.083 11.5507 34.0901 11.5437 34.0952 11.5352C34.1002 11.5267 34.103 11.517 34.1032 11.507C34.1035 11.4969 34.1012 11.487 34.0965 11.4781C33.5258 10.4198 32.9655 9.3724 32.4156 8.33594C32.4125 8.33073 32.3688 8.24062 32.2844 8.06563C32.1355 7.75625 31.9137 7.49115 31.6189 7.27031ZM4.01218 15.6047C4.20381 15.3474 4.30119 15.0286 4.30431 14.6484C4.30952 14.0401 4.30691 13.4312 4.2965 12.8219C4.29609 12.801 4.28752 12.7811 4.27262 12.7665C4.25772 12.7519 4.23769 12.7437 4.21683 12.7437L1.26588 12.7344C1.24309 12.7344 1.22124 12.7436 1.20513 12.76C1.18901 12.7764 1.17996 12.7987 1.17996 12.8219C1.17996 13.2583 1.17996 13.6901 1.17996 14.1172C1.17996 14.713 1.23932 15.1365 1.35805 15.3875C1.54968 15.7917 1.87148 16.0547 2.32347 16.1766C2.64736 16.2641 2.95199 16.2625 3.23735 16.1719C3.54561 16.0729 3.80389 15.8839 4.01218 15.6047ZM6.16799 15.9484C6.59915 16.2391 7.03239 16.3224 7.46771 16.1984C7.84368 16.0911 8.13372 15.8781 8.33785 15.5594C8.52739 15.2635 8.62789 14.8948 8.63935 14.4531C8.65288 13.9156 8.64455 13.3786 8.61435 12.8422C8.61315 12.8203 8.60406 12.7996 8.58895 12.7845C8.57385 12.7694 8.55387 12.761 8.53312 12.7609L5.61029 12.7375C5.59785 12.7373 5.5855 12.7396 5.57395 12.7444C5.5624 12.7492 5.55189 12.7563 5.54302 12.7653C5.53415 12.7743 5.5271 12.7851 5.52229 12.7969C5.51748 12.8088 5.515 12.8215 5.515 12.8344C5.515 13.5354 5.52385 14.1917 5.54155 14.8031C5.55613 15.2948 5.76494 15.6766 6.16799 15.9484ZM10.4187 15.9172C10.753 16.1859 11.1102 16.2969 11.4903 16.25C12.0714 16.1792 12.4828 15.9219 12.7244 15.4781C12.865 15.2198 12.9353 14.7844 12.9353 14.1719C12.9353 13.726 12.9353 13.276 12.9353 12.8219C12.9353 12.7987 12.9261 12.7764 12.9097 12.76C12.8933 12.7436 12.871 12.7344 12.8478 12.7344H9.89846C9.87526 12.7344 9.853 12.7436 9.8366 12.76C9.82019 12.7764 9.81098 12.7987 9.81098 12.8219C9.81098 13.4406 9.80629 14.0234 9.79692 14.5703C9.7865 15.1276 9.99375 15.5766 10.4187 15.9172ZM14.8396 15.9859C15.7196 16.4536 16.4122 16.3385 16.9173 15.6406C17.0985 15.3906 17.2058 15.0646 17.2391 14.6625C17.286 14.099 17.2933 13.4969 17.261 12.8562C17.2594 12.8234 17.2452 12.7924 17.2213 12.7697C17.1975 12.747 17.1658 12.7343 17.1329 12.7344H14.2304C14.199 12.7344 14.1689 12.7466 14.1464 12.7685C14.1239 12.7904 14.1109 12.8202 14.1101 12.8516C14.0934 13.5422 14.107 14.1932 14.1507 14.8047C14.1913 15.3703 14.421 15.7641 14.8396 15.9859ZM19.045 15.9234C19.3824 16.188 19.7412 16.2969 20.1213 16.25C20.7025 16.1792 21.1138 15.9219 21.3554 15.4781C21.496 15.2198 21.5663 14.7844 21.5663 14.1719C21.5663 13.726 21.5663 13.276 21.5663 12.8219C21.5663 12.7987 21.5571 12.7764 21.5407 12.76C21.5243 12.7436 21.5021 12.7344 21.4789 12.7344H18.5295C18.5063 12.7344 18.484 12.7436 18.4676 12.76C18.4512 12.7764 18.442 12.7987 18.442 12.8219C18.442 13.5062 18.4503 14.1542 18.467 14.7656C18.4805 15.2469 18.6732 15.6328 19.045 15.9234ZM23.2691 15.8375C23.6617 16.1958 24.1205 16.3115 24.6454 16.1844C25.087 16.0771 25.4171 15.8547 25.6358 15.5172C25.7879 15.2828 25.8727 14.9219 25.8904 14.4344C25.9071 13.949 25.9092 13.425 25.8967 12.8625C25.8959 12.8286 25.8818 12.7965 25.8576 12.7728C25.8334 12.7492 25.8009 12.7359 25.767 12.7359L22.8239 12.7437C22.8033 12.7438 22.7835 12.7519 22.7686 12.7665C22.7538 12.781 22.745 12.8009 22.7442 12.8219C22.7005 14 22.7114 14.726 22.777 15C22.8562 15.3313 23.0202 15.6104 23.2691 15.8375ZM27.7229 15.9531C28.0572 16.1948 28.4003 16.2938 28.7523 16.25C29.3533 16.176 29.7714 15.9036 30.0068 15.4328C30.1359 15.1766 30.2 14.7464 30.1989 14.1422C30.1989 13.7026 30.1953 13.2625 30.188 12.8219C30.188 12.8012 30.1797 12.7813 30.1651 12.7666C30.1505 12.752 30.1306 12.7437 30.1099 12.7437L27.1589 12.7344C27.1361 12.7344 27.1143 12.7436 27.0982 12.76C27.0821 12.7764 27.073 12.7987 27.073 12.8219C27.073 13.4667 27.0782 14.1016 27.0886 14.7266C27.098 15.2443 27.3094 15.6531 27.7229 15.9531ZM31.9423 15.8719C32.5297 16.3458 33.1488 16.3839 33.7997 15.9859C34.1424 15.7776 34.3585 15.4891 34.448 15.1203C34.4803 14.987 34.5074 14.6464 34.5293 14.0984C34.5459 13.6766 34.5329 13.2484 34.4902 12.8141C34.4875 12.792 34.477 12.7717 34.4606 12.757C34.4441 12.7423 34.423 12.7343 34.4012 12.7344H31.4533C31.4321 12.7344 31.4116 12.7427 31.3964 12.7576C31.3813 12.7725 31.3725 12.7928 31.3721 12.8141C31.3554 13.4745 31.3617 14.1068 31.3909 14.7109C31.4034 14.9839 31.4471 15.1964 31.5221 15.3484C31.62 15.5516 31.76 15.726 31.9423 15.8719ZM36.3586 15.9469C37.2542 16.4219 37.9541 16.3271 38.4581 15.6625C38.6518 15.4062 38.7674 15.063 38.8049 14.6328C38.8591 14.0266 38.8565 13.4193 38.7971 12.8109C38.7948 12.7898 38.7846 12.7702 38.7684 12.7561C38.7522 12.742 38.7313 12.7342 38.7096 12.7344H35.8009C35.7868 12.7344 35.7728 12.7372 35.7599 12.7426C35.7469 12.748 35.7351 12.756 35.7252 12.766C35.7153 12.7761 35.7075 12.788 35.7023 12.801C35.697 12.8141 35.6944 12.8281 35.6946 12.8422C35.703 13.3745 35.7066 13.9156 35.7056 14.4656C35.7045 14.8333 35.7373 15.1068 35.804 15.2859C35.9165 15.5901 36.1013 15.8104 36.3586 15.9469Z" fill="#E98B71"/>
<path d="M5.82116 38.7422C5.83158 38.4401 5.84199 38.1385 5.85241 37.8375C5.86595 37.4073 5.92687 37.1161 6.03518 36.9641C6.20702 36.7224 6.49602 36.5651 6.90219 36.4922C6.92957 36.4868 6.9542 36.4721 6.97188 36.4507C6.98955 36.4293 6.99915 36.4026 6.99904 36.375C6.99904 31.8646 6.99904 27.3698 6.99904 22.8906C6.99904 22.3229 7.19484 21.9104 7.58642 21.6531C7.79784 21.5146 8.12537 21.4453 8.56903 21.4453C10.7144 21.4453 12.8598 21.4453 15.0052 21.4453C15.5322 21.4453 15.9066 21.5193 16.1284 21.6672C16.5252 21.9318 16.7236 22.3786 16.7236 23.0078C16.7236 23.7714 16.7236 27.6599 16.7236 28.4234C16.7236 28.6984 16.6981 28.8859 16.647 28.9859C16.5491 29.1766 16.3664 29.2802 16.0987 29.2969C15.7654 29.3177 15.5962 29.1745 15.591 28.8672L15.541 22.8172C15.5397 22.7533 15.5142 22.6924 15.47 22.6479C15.4259 22.6034 15.3666 22.5789 15.3051 22.5797L8.27847 22.6437C8.25746 22.6442 8.23743 22.6527 8.22257 22.6675C8.20772 22.6824 8.19919 22.7024 8.19879 22.7234L8.17067 36.4188C8.17067 36.4465 8.1817 36.4731 8.20133 36.4928C8.22096 36.5124 8.24758 36.5234 8.27534 36.5234L15.4645 36.5141C15.4852 36.5141 15.5051 36.5058 15.5197 36.4912C15.5343 36.4765 15.5426 36.4567 15.5426 36.4359C15.553 33.8526 15.5561 31.2693 15.5519 28.6859C15.5519 28.3901 15.5816 28.1776 15.641 28.0484C15.7712 27.7693 16.006 27.6839 16.3455 27.7922C16.5976 27.8724 16.7236 28.0448 16.7236 28.3094L16.733 36.4344C16.733 36.4551 16.7412 36.475 16.7558 36.4896C16.7705 36.5043 16.7903 36.5125 16.8111 36.5125C17.1693 36.5177 17.4458 36.638 17.6406 36.8734C17.7853 37.0474 17.8661 37.3286 17.8827 37.7172C17.8963 38.0349 17.8994 38.3755 17.8921 38.7391C17.8919 38.7507 17.894 38.7622 17.8984 38.773C17.9028 38.7838 17.9093 38.7936 17.9176 38.8019C17.9259 38.8102 17.9358 38.8168 17.9467 38.8213C17.9576 38.8258 17.9693 38.8281 17.9811 38.8281H20.0729C20.0961 38.8281 20.1183 38.8189 20.1347 38.8025C20.1511 38.7861 20.1604 38.7638 20.1604 38.7406V26.8078C20.1604 26.5964 20.2536 26.4391 20.44 26.3359C20.7587 26.1599 21.0055 26.1948 21.1805 26.4406C21.2742 26.5719 21.3221 26.775 21.3242 27.05C21.3346 29.4302 21.3372 31.8427 21.332 34.2875C21.332 34.3107 21.3412 34.333 21.3576 34.3494C21.374 34.3658 21.3963 34.375 21.4195 34.375C22.4026 34.375 23.3758 34.3698 24.3392 34.3594C25.2119 34.349 25.6389 34.7839 25.6202 35.6641C25.5993 36.6661 25.5889 37.6865 25.5889 38.725C25.5889 38.7385 25.5915 38.7518 25.5966 38.7642C25.6016 38.7767 25.609 38.7879 25.6183 38.7974C25.6276 38.8068 25.6386 38.8143 25.6508 38.8193C25.6629 38.8243 25.6758 38.8268 25.6889 38.8266L26.634 38.8203C26.6435 38.8203 26.6529 38.8181 26.6614 38.814C26.67 38.8098 26.6776 38.8039 26.6837 38.7964C26.6898 38.789 26.6942 38.7803 26.6967 38.771C26.6992 38.7616 26.6996 38.7518 26.6981 38.7422C26.6741 38.5922 26.6772 38.4458 26.7074 38.3031C26.7376 38.1594 26.8137 38.0432 26.9355 37.9547C27.2386 37.7359 27.4979 37.774 27.7135 38.0688C27.7437 38.1104 27.7994 38.2687 27.8806 38.5437C27.9556 38.8021 28.1467 38.874 28.4539 38.7594C28.5185 38.7355 28.5743 38.6926 28.6136 38.6364C28.653 38.5803 28.6741 38.5136 28.6742 38.4453L28.6648 33.2125C28.6648 33.1918 28.6564 33.1719 28.6415 33.1573C28.6266 33.1426 28.6063 33.1344 28.5852 33.1344C27.3938 33.125 26.2023 33.1214 25.0109 33.1234C24.4267 33.1245 23.9913 33.0542 23.7049 32.9125C23.0759 32.6021 22.751 32.0547 22.7301 31.2703C22.7208 30.9297 22.727 30.7089 22.7489 30.6078C22.7874 30.4328 22.8812 30.2932 23.0301 30.1891C23.1363 30.1161 23.2889 30.0766 23.4878 30.0703C24.5615 30.037 25.6358 30.0229 26.7106 30.0281C26.7327 30.0285 26.7543 30.0211 26.7717 30.0072C26.7891 29.9932 26.8011 29.9735 26.8059 29.9516C27.0381 28.8422 27.6723 28.0708 28.7086 27.6375C28.7537 27.6184 28.7906 27.5816 28.8117 27.5344C28.9512 27.2177 29.1918 27.1021 29.5334 27.1875C29.7084 27.2312 29.8229 27.3464 29.8771 27.5328C29.8839 27.5562 29.8956 27.5776 29.9112 27.5954C29.9269 27.6133 29.9462 27.6271 29.9677 27.6359C31.0039 28.0599 31.6444 28.826 31.8892 29.9344C31.894 29.9559 31.9058 29.9753 31.9227 29.9894C31.9397 30.0035 31.9608 30.0117 31.9829 30.0125C32.9629 30.0448 33.9429 30.0563 34.9229 30.0469C35.4061 30.0417 35.6957 30.2182 35.7915 30.5766C35.8415 30.7641 35.8446 31.0568 35.8009 31.4547C35.678 32.5839 34.9818 33.1411 33.7122 33.1266C32.4594 33.1109 31.2065 33.1193 29.9536 33.1516C29.9326 33.1524 29.9128 33.1613 29.8982 33.1764C29.8836 33.1916 29.8755 33.2118 29.8755 33.2328L29.8849 38.4594C29.8848 38.5114 29.8987 38.5624 29.9251 38.6072C29.9515 38.652 29.9894 38.6889 30.0349 38.7141C30.4004 38.9161 30.6233 38.7979 30.7035 38.3594C30.7441 38.1302 30.854 37.9719 31.0331 37.8844C31.1956 37.8052 31.3653 37.8104 31.5424 37.9C31.8329 38.049 31.9376 38.3198 31.8564 38.7125C31.854 38.7227 31.8537 38.7333 31.8554 38.7435C31.8572 38.7538 31.861 38.7633 31.8665 38.7716C31.8721 38.7798 31.8792 38.7865 31.8875 38.7912C31.8957 38.7958 31.9048 38.7983 31.9142 38.7984L32.9999 38.8234C33.0101 38.8236 33.0202 38.8217 33.0296 38.8176C33.0391 38.8135 33.0477 38.8075 33.055 38.7997C33.0623 38.792 33.068 38.7828 33.072 38.7727C33.0759 38.7625 33.078 38.7516 33.078 38.7406C33.0717 37.6719 33.0842 36.6036 33.1155 35.5359C33.1249 35.2078 33.1816 34.9682 33.2858 34.8172C33.3909 34.6641 33.531 34.5479 33.706 34.4688C33.8278 34.4135 33.9997 34.3849 34.2215 34.3828C35.1921 34.3734 36.2044 34.3708 37.2584 34.375C37.2707 34.3752 37.2829 34.3729 37.2943 34.3683C37.3058 34.3637 37.3162 34.3569 37.3251 34.3482C37.3339 34.3395 37.341 34.3291 37.3459 34.3176C37.3508 34.3061 37.3535 34.2938 37.3537 34.2812L37.3833 26.7703C37.3838 26.6917 37.4036 26.6147 37.441 26.5462C37.4784 26.4777 37.5321 26.4199 37.5974 26.3781C37.9035 26.1833 38.153 26.1927 38.3456 26.4062C38.4592 26.5323 38.5154 26.7313 38.5144 27.0031C38.5019 30.9094 38.5117 34.8156 38.544 38.7219C38.5445 38.7411 38.5527 38.7595 38.5671 38.7736C38.5815 38.7877 38.6011 38.7966 38.6221 38.7984L39.6094 38.8922C39.6566 38.8962 39.7045 38.9207 39.7438 38.9609C40.1062 39.3245 40.077 39.6427 39.6563 39.9156C39.5696 39.9707 39.4694 40 39.3673 40C26.394 40 13.5607 40 0.867509 40C0.658177 40 0.484255 39.9677 0.345742 39.9031C0.188483 39.8313 0.0874628 39.7026 0.0426805 39.5172C-0.0135578 39.2839 0.054657 39.099 0.247325 38.9625C0.361885 38.8802 0.532162 38.838 0.758156 38.8359C1.72462 38.8266 2.72181 38.824 3.74972 38.8281C3.76093 38.8283 3.77206 38.8263 3.78248 38.822C3.79289 38.8178 3.80237 38.8115 3.81037 38.8035C3.81837 38.7955 3.82473 38.786 3.82906 38.7754C3.8334 38.7649 3.83564 38.7536 3.83564 38.7422V35.4813C3.83564 35.2135 3.9627 35.037 4.21681 34.9516C4.46884 34.8661 4.67088 34.9083 4.82293 35.0781C4.91875 35.1844 4.97082 35.3547 4.97915 35.5891C5.01456 36.5849 5.02289 37.6229 5.00415 38.7031C5.00394 38.7189 5.00678 38.7345 5.01249 38.7491C5.01821 38.7637 5.02669 38.7769 5.03745 38.7881C5.0482 38.7993 5.06102 38.8082 5.07514 38.8143C5.08927 38.8203 5.10443 38.8234 5.11975 38.8234L5.73993 38.8219C5.76094 38.8219 5.78115 38.8136 5.79629 38.7987C5.81144 38.7839 5.82036 38.7636 5.82116 38.7422ZM30.0146 28.9719C29.8042 28.8146 29.5761 28.7365 29.3303 28.7375C29.1106 28.7396 28.8971 28.8161 28.6898 28.9672C28.3639 29.2047 28.1379 29.5344 28.0119 29.9563C28.0092 29.9659 28.0089 29.9761 28.0108 29.9859C28.0126 29.9957 28.0168 30.005 28.0228 30.013C28.0288 30.021 28.0366 30.0275 28.0455 30.032C28.0545 30.0365 28.0643 30.0389 28.0743 30.0391H30.6191C30.6285 30.0392 30.6377 30.0372 30.6461 30.0331C30.6545 30.029 30.6618 30.0229 30.6675 30.0155C30.6731 30.008 30.6769 29.9993 30.6785 29.9901C30.6802 29.9809 30.6796 29.9714 30.6769 29.9625C30.5499 29.5365 30.3291 29.2062 30.0146 28.9719ZM24.2236 31.8703C24.3277 31.9255 24.4386 31.9531 24.5563 31.9531C27.739 31.9583 30.843 31.9552 33.8684 31.9438C34.1038 31.9427 34.2741 31.9104 34.3793 31.8469C34.5584 31.7375 34.6412 31.5615 34.6277 31.3188C34.6265 31.2972 34.6169 31.2769 34.6009 31.2621C34.5849 31.2472 34.5637 31.239 34.5417 31.2391L23.9971 31.2203C23.9751 31.2202 23.9539 31.2283 23.9379 31.2428C23.9219 31.2574 23.9123 31.2773 23.9111 31.2984C23.8945 31.5609 23.9986 31.7516 24.2236 31.8703ZM24.4157 35.5953C24.4157 35.5825 24.4106 35.5701 24.4015 35.5611C24.3925 35.552 24.3801 35.5469 24.3673 35.5469H21.3804C21.3676 35.5469 21.3553 35.552 21.3462 35.5611C21.3371 35.5701 21.332 35.5825 21.332 35.5953V38.7797C21.332 38.786 21.3332 38.7923 21.3357 38.7982C21.3381 38.8041 21.3417 38.8094 21.3462 38.8139C21.3507 38.8184 21.356 38.822 21.3619 38.8244C21.3678 38.8269 21.3741 38.8281 21.3804 38.8281H24.3673C24.3737 38.8281 24.38 38.8269 24.3858 38.8244C24.3917 38.822 24.397 38.8184 24.4015 38.8139C24.406 38.8094 24.4096 38.8041 24.412 38.7982C24.4145 38.7923 24.4157 38.786 24.4157 38.7797V35.5953ZM37.3701 35.6007C37.3702 35.5943 37.3689 35.588 37.3665 35.5821C37.3641 35.5763 37.3606 35.5709 37.3561 35.5664C37.3516 35.5619 37.3463 35.5583 37.3404 35.5558C37.3345 35.5534 37.3282 35.5521 37.3219 35.5521L34.3475 35.5417C34.3412 35.5417 34.3349 35.5429 34.329 35.5453C34.3231 35.5477 34.3177 35.5513 34.3132 35.5558C34.3087 35.5602 34.3051 35.5656 34.3027 35.5714C34.3002 35.5773 34.2989 35.5836 34.2989 35.59L34.2878 38.7743C34.2878 38.7807 34.289 38.787 34.2914 38.7929C34.2938 38.7987 34.2974 38.8041 34.3019 38.8086C34.3064 38.8131 34.3117 38.8167 34.3175 38.8192C34.3234 38.8216 34.3297 38.8229 34.3361 38.8229L37.3104 38.8333C37.3168 38.8333 37.3231 38.8321 37.329 38.8297C37.3349 38.8273 37.3402 38.8237 37.3447 38.8192C37.3492 38.8148 37.3528 38.8094 37.3553 38.8036C37.3577 38.7977 37.359 38.7914 37.359 38.785L37.3701 35.6007ZM16.6845 37.7453C16.6845 37.739 16.6833 37.7327 16.6808 37.7268C16.6784 37.7209 16.6748 37.7156 16.6703 37.7111C16.6658 37.7066 16.6605 37.703 16.6546 37.7006C16.6488 37.6981 16.6425 37.6969 16.6361 37.6969H7.08184C7.06899 37.6969 7.05668 37.702 7.0476 37.7111C7.03851 37.7201 7.03341 37.7325 7.03341 37.7453V38.7797C7.03341 38.786 7.03466 38.7923 7.0371 38.7982C7.03953 38.8041 7.0431 38.8094 7.0476 38.8139C7.05209 38.8184 7.05743 38.822 7.06331 38.8244C7.06918 38.8269 7.07548 38.8281 7.08184 38.8281H16.6361C16.6425 38.8281 16.6488 38.8269 16.6546 38.8244C16.6605 38.822 16.6658 38.8184 16.6703 38.8139C16.6748 38.8094 16.6784 38.8041 16.6808 38.7982C16.6833 38.7923 16.6845 38.786 16.6845 38.7797V37.7453Z" fill="#E98B71"/>
<path d="M13.9555 30.3031C14.2721 30.3031 14.5288 30.0464 14.5288 29.7297C14.5288 29.413 14.2721 29.1562 13.9555 29.1562C13.6388 29.1562 13.3821 29.413 13.3821 29.7297C13.3821 30.0464 13.6388 30.3031 13.9555 30.3031Z" fill="#E98B71"/>
</svg>
