<svg width="40" height="40" viewBox="0 0 40 40" fill="none" xmlns="http://www.w3.org/2000/svg">
<path d="M3.26955 36.0467L10.2278 36.0561C10.2519 36.0561 10.275 36.047 10.292 36.0309C10.3091 36.0148 10.3187 35.993 10.3187 35.9702V24.8678C10.3186 24.8435 10.312 24.8196 10.2996 24.7986C10.2871 24.7775 10.2693 24.7599 10.2476 24.7476C9.70054 24.43 9.44075 23.9947 9.46827 23.4418C9.47927 23.2252 9.48643 23.0081 9.48973 22.7904C9.49524 22.5145 9.53046 22.3036 9.59541 22.1578C9.81778 21.6632 10.2653 21.4149 10.9379 21.4128C16.9109 21.3951 22.884 21.3977 28.857 21.4206C29.3546 21.4227 29.7129 21.4966 29.932 21.6424C30.2743 21.8704 30.4494 22.2234 30.4571 22.7014C30.4615 22.9742 30.4664 23.2476 30.4719 23.5214C30.4818 24.0598 30.2286 24.4727 29.7124 24.7601C29.6897 24.7724 29.671 24.7902 29.6579 24.8116C29.6449 24.8329 29.638 24.8572 29.638 24.8819V35.9686C29.638 35.9918 29.6478 36.0141 29.6651 36.0305C29.6825 36.0469 29.706 36.0561 29.7305 36.0561H36.6855C36.7105 36.0561 36.7344 36.0465 36.7521 36.0295C36.7697 36.0126 36.7796 35.9895 36.7796 35.9655L36.8193 26.3954C36.8215 26.082 36.9893 25.9211 37.3229 25.9128C37.7665 25.9034 37.9894 26.1085 37.9916 26.5282C38.0092 29.6125 38.018 32.7416 38.018 35.9155C38.0179 35.9435 38.0287 35.9705 38.0485 35.9915C38.0683 36.0126 38.0956 36.0261 38.1254 36.0295C39.0853 36.143 39.6693 36.5215 39.8773 37.1651C40.0193 37.6035 40.038 38.1158 39.9335 38.702C39.8113 39.3893 39.393 39.8048 38.6785 39.9485C38.5057 39.9828 37.9542 40 37.024 40C25.439 40 13.8539 40 2.2689 40C1.95737 40 1.69207 39.9896 1.47301 39.9688C1.18019 39.9417 0.931404 39.8667 0.726652 39.7438C0.258803 39.4627 0.0193744 39.0274 0.00836623 38.4381C0.00396295 38.2121 0.0012109 37.9861 0.000110082 37.7602C-0.00209156 37.4853 0.0287314 37.264 0.092579 37.0963C0.347969 36.4237 0.918194 36.0764 1.80325 36.0545C1.83946 36.0537 1.8739 36.0395 1.8992 36.015C1.92451 35.9905 1.93867 35.9576 1.93865 35.9233C1.93865 28.377 1.93865 20.838 1.93865 13.3063C1.93865 12.7825 1.99645 12.4165 2.11203 12.2082C2.25404 11.951 2.47255 11.7636 2.76757 11.6459C2.95361 11.571 3.23267 11.534 3.60475 11.535C5.21965 11.5381 6.83455 11.5345 8.44946 11.5241C8.47223 11.5241 8.49407 11.5157 8.51017 11.5008C8.52627 11.4858 8.53532 11.4656 8.53532 11.4444L8.54358 10.0168C8.54367 9.99944 8.53988 9.98225 8.53245 9.96633C8.52503 9.95041 8.51413 9.93611 8.50046 9.92435C8.48679 9.91259 8.47064 9.90363 8.45304 9.89804C8.43545 9.89244 8.41679 9.89033 8.39827 9.89185C7.75759 9.94392 7.2936 9.76482 7.00628 9.35454C6.85547 9.13899 6.77896 8.79953 6.77676 8.33615C6.76685 6.16816 6.76355 4.0007 6.76685 1.83375C6.76795 1.26416 6.83015 0.867948 6.95344 0.64511C7.18571 0.224425 7.60568 0.0140821 8.21333 0.0140821C11.5576 0.0140821 19.9618 0.0140821 23.5186 0.0140821C23.5809 0.014103 23.6426 0.0258488 23.7001 0.0486389C23.7577 0.071429 23.8099 0.10481 23.8538 0.146848C24.195 0.474857 24.2165 0.756529 23.9182 0.991863C23.7641 1.1137 23.5345 1.17513 23.2296 1.17617C19.8358 1.18763 11.5059 1.19075 8.14728 1.18554C8.11006 1.18554 8.07436 1.19953 8.04804 1.22443C8.02171 1.24933 8.00693 1.2831 8.00693 1.31831V8.60324C8.00693 8.61883 8.01013 8.63427 8.01635 8.64867C8.02258 8.66307 8.0317 8.67616 8.0432 8.68719C8.0547 8.69821 8.06835 8.70695 8.08338 8.71292C8.0984 8.71888 8.11451 8.72195 8.13077 8.72195L31.8556 8.71258C31.878 8.71258 31.8994 8.70435 31.9152 8.68971C31.931 8.67506 31.9399 8.6552 31.9399 8.63448V1.27301C31.9399 1.2523 31.9312 1.23244 31.9157 1.21779C31.9002 1.20314 31.8792 1.19492 31.8573 1.19492C28.4679 1.1845 25.079 1.18138 21.6907 1.18554C21.4166 1.18554 21.2168 1.15431 21.0913 1.09183C20.8513 0.972078 20.7588 0.772148 20.8139 0.492039C20.8678 0.220259 21.0329 0.0625027 21.3092 0.0187681C21.3291 0.0156442 21.5426 0.0140821 21.9499 0.0140821C25.1599 0.0140821 28.3694 0.00939627 31.5782 2.45735e-05C32.6857 -0.00414063 33.2339 0.521195 33.2229 1.57603C33.202 3.53055 33.1904 5.48507 33.1882 7.43959C33.1871 8.32886 33.1673 8.84326 33.1287 8.9828C32.9493 9.6284 32.4088 9.93663 31.5072 9.90747C31.4961 9.90705 31.485 9.90868 31.4746 9.91226C31.4642 9.91584 31.4547 9.9213 31.4467 9.9283C31.4386 9.9353 31.4323 9.94371 31.4279 9.95302C31.4236 9.96232 31.4214 9.97233 31.4214 9.98245L31.4131 11.4554C31.4131 11.4761 31.4218 11.4959 31.4373 11.5106C31.4528 11.5252 31.4738 11.5335 31.4957 11.5335C33.0732 11.5335 34.6506 11.5335 36.2281 11.5335C36.7543 11.5335 37.1346 11.6043 37.3691 11.7459C37.6234 11.9 37.8056 12.1161 37.9157 12.3941C37.9839 12.5649 38.018 12.8283 38.018 13.1844C38.018 16.6311 38.018 23.2012 38.018 26.6469C38.018 26.9103 37.9724 27.1077 37.881 27.2389C37.7093 27.4857 37.4654 27.5362 37.1495 27.3904C36.9029 27.2769 36.7796 27.0894 36.7796 26.8281L36.7697 14.7839C36.7697 14.7632 36.761 14.7433 36.7455 14.7287C36.73 14.714 36.709 14.7058 36.6872 14.7058L3.26955 14.6964C3.24502 14.6964 3.2215 14.7056 3.20416 14.722C3.18682 14.7384 3.17708 14.7607 3.17708 14.7839L3.18699 35.9686C3.18699 35.9893 3.19568 36.0092 3.21117 36.0238C3.22665 36.0385 3.24765 36.0467 3.26955 36.0467ZM19.3575 9.96214C19.3575 9.95137 19.353 9.94104 19.3449 9.93342C19.3369 9.92581 19.3259 9.92153 19.3146 9.92153H9.82658C9.82095 9.92153 9.81536 9.92258 9.81015 9.92462C9.80494 9.92666 9.80021 9.92965 9.79623 9.93342C9.79224 9.9372 9.78908 9.94167 9.78692 9.9466C9.78476 9.95153 9.78365 9.95681 9.78365 9.96214V11.471C9.78365 11.4763 9.78476 11.4816 9.78692 11.4865C9.78908 11.4915 9.79224 11.4959 9.79623 11.4997C9.80021 11.5035 9.80494 11.5065 9.81015 11.5085C9.81536 11.5105 9.82095 11.5116 9.82658 11.5116H19.3146C19.3259 11.5116 19.3369 11.5073 19.3449 11.4997C19.353 11.4921 19.3575 11.4818 19.3575 11.471V9.96214ZM30.1717 9.97923C30.1717 9.97 30.1697 9.96086 30.166 9.95234C30.1622 9.94382 30.1567 9.93608 30.1498 9.92957C30.1429 9.92305 30.1347 9.91789 30.1257 9.91437C30.1167 9.91085 30.107 9.90905 30.0973 9.90907L20.672 9.92462C20.6623 9.92464 20.6526 9.92647 20.6436 9.93002C20.6346 9.93357 20.6264 9.93876 20.6195 9.9453C20.6127 9.95184 20.6072 9.95959 20.6035 9.96813C20.5998 9.97666 20.5979 9.98581 20.5979 9.99504L20.6006 11.4601C20.6006 11.4694 20.6025 11.4785 20.6063 11.487C20.61 11.4956 20.6155 11.5033 20.6224 11.5098C20.6293 11.5163 20.6375 11.5215 20.6466 11.525C20.6556 11.5285 20.6652 11.5303 20.675 11.5303L30.1002 11.5148C30.11 11.5147 30.1196 11.5129 30.1286 11.5094C30.1376 11.5058 30.1458 11.5006 30.1527 11.4941C30.1596 11.4875 30.1651 11.4798 30.1688 11.4712C30.1725 11.4627 30.1744 11.4536 30.1744 11.4443L30.1717 9.97923ZM36.7763 12.8236C36.7763 12.8072 36.7729 12.791 36.7663 12.7758C36.7596 12.7607 36.7499 12.7469 36.7376 12.7353C36.7254 12.7237 36.7108 12.7145 36.6948 12.7082C36.6787 12.7019 36.6616 12.6987 36.6442 12.6987H3.30918C3.29183 12.6987 3.27465 12.7019 3.25862 12.7082C3.2426 12.7145 3.22803 12.7237 3.21577 12.7353C3.2035 12.7469 3.19377 12.7607 3.18713 12.7758C3.18049 12.791 3.17708 12.8072 3.17708 12.8236V13.4016C3.17708 13.4347 3.191 13.4665 3.21577 13.4899C3.24054 13.5133 3.27414 13.5265 3.30918 13.5265H36.6442C36.6793 13.5265 36.7129 13.5133 36.7376 13.4899C36.7624 13.4665 36.7763 13.4347 36.7763 13.4016V12.8236ZM29.2252 22.6264C29.2252 22.6152 29.2205 22.6045 29.2122 22.5966C29.2038 22.5887 29.1925 22.5843 29.1807 22.5843H10.776C10.7642 22.5843 10.7529 22.5887 10.7445 22.5966C10.7362 22.6045 10.7315 22.6152 10.7315 22.6264V23.6355C10.7315 23.6466 10.7362 23.6574 10.7445 23.6653C10.7529 23.6732 10.7642 23.6776 10.776 23.6776H29.1807C29.1925 23.6776 29.2038 23.6732 29.2122 23.6653C29.2205 23.6574 29.2252 23.6466 29.2252 23.6355V22.6264ZM19.3591 24.9256C19.3591 24.9158 19.3571 24.906 19.3531 24.8969C19.3491 24.8878 19.3433 24.8796 19.3359 24.8726C19.3286 24.8656 19.3198 24.8601 19.3102 24.8564C19.3006 24.8526 19.2903 24.8506 19.2799 24.8506H11.638C11.6276 24.8506 11.6173 24.8526 11.6077 24.8564C11.598 24.8601 11.5893 24.8656 11.5819 24.8726C11.5746 24.8796 11.5687 24.8878 11.5648 24.8969C11.5608 24.906 11.5587 24.9158 11.5587 24.9256V35.9811C11.5587 36.001 11.5671 36.0201 11.5819 36.0341C11.5968 36.0482 11.617 36.0561 11.638 36.0561H19.2799C19.3009 36.0561 19.3211 36.0482 19.3359 36.0341C19.3508 36.0201 19.3591 36.001 19.3591 35.9811V24.9256ZM28.398 24.8913C28.398 24.8805 28.3934 24.8702 28.3854 24.8625C28.3773 24.8549 28.3664 24.8506 28.355 24.8506H20.6405C20.6291 24.8506 20.6182 24.8549 20.6101 24.8625C20.6021 24.8702 20.5976 24.8805 20.5976 24.8913V36.0155C20.5976 36.0262 20.6021 36.0366 20.6101 36.0442C20.6182 36.0518 20.6291 36.0561 20.6405 36.0561H28.355C28.3664 36.0561 28.3773 36.0518 28.3854 36.0442C28.3934 36.0366 28.398 36.0262 28.398 36.0155V24.8913ZM38.7198 37.5837C38.7198 37.4896 38.6803 37.3994 38.61 37.333C38.5397 37.2665 38.4444 37.2291 38.345 37.2291H1.61171C1.5123 37.2291 1.41696 37.2665 1.34667 37.333C1.27637 37.3994 1.23688 37.4896 1.23688 37.5837V38.474C1.23688 38.568 1.27637 38.6582 1.34667 38.7247C1.41696 38.7912 1.5123 38.8285 1.61171 38.8285H38.345C38.4444 38.8285 38.5397 38.7912 38.61 38.7247C38.6803 38.6582 38.7198 38.568 38.7198 38.474V37.5837Z" fill="#E98B71"/>
<path d="M19.6283 2.88182C19.644 2.88971 19.6578 2.90013 19.6689 2.91247C19.68 2.92481 19.6881 2.93882 19.6927 2.95367L20.9477 6.81169C20.9554 6.83559 20.9573 6.8608 20.9533 6.88542C20.9493 6.91004 20.9395 6.93343 20.9245 6.95382C20.7352 7.21727 20.4765 7.29277 20.1485 7.18031C20.1233 7.17153 20.1005 7.15771 20.0819 7.13987C20.0634 7.12203 20.0494 7.10062 20.0411 7.07722L19.805 6.40402C19.7969 6.38081 19.7825 6.36054 19.7639 6.34599C19.7453 6.33145 19.7233 6.32334 19.701 6.3228L18.5137 6.30718C18.4801 6.30681 18.4471 6.31808 18.4204 6.33911C18.3937 6.36015 18.3747 6.38967 18.3668 6.42276C18.3316 6.57687 18.2864 6.72995 18.2314 6.88198C18.085 7.28183 17.7938 7.34067 17.3579 7.05848C17.3105 7.02828 17.2746 6.98509 17.2552 6.93529C17.2359 6.8855 17.2343 6.83175 17.2506 6.78201L18.4659 3.01615C18.4819 2.96761 18.515 2.92527 18.56 2.89588C18.8792 2.68866 19.2353 2.68397 19.6283 2.88182ZM18.664 5.44498C18.6602 5.4584 18.6597 5.47246 18.6626 5.48609C18.6655 5.49971 18.6716 5.51253 18.6805 5.52355C18.6895 5.53457 18.701 5.5435 18.7141 5.54965C18.7273 5.5558 18.7418 5.559 18.7565 5.559H19.4731C19.4832 5.55908 19.4932 5.55697 19.5023 5.55284C19.5113 5.54871 19.5192 5.54268 19.5253 5.53523C19.5314 5.52779 19.5356 5.51913 19.5374 5.50996C19.5392 5.5008 19.5387 5.49138 19.5359 5.48247L19.1148 4.08296C19.0917 4.00486 19.0691 4.00538 19.0471 4.08452L18.664 5.44498Z" fill="#E98B71"/>
<path d="M13.92 4.74835L13.9002 6.95382C13.9002 6.98031 13.8949 7.0059 13.8846 7.02883C13.8743 7.05175 13.8594 7.07146 13.8408 7.08659C13.6602 7.23237 13.434 7.26517 13.1621 7.18499C13.0918 7.16408 13.0304 7.12252 12.9867 7.06635C12.9431 7.01018 12.9195 6.94231 12.9194 6.8726C12.9194 5.8136 12.9194 4.76189 12.9194 3.71746C12.9194 3.35405 12.9254 3.151 12.9376 3.1083C13.0102 2.85943 13.2403 2.75374 13.6278 2.79123C13.8204 2.80997 13.963 2.89223 14.0554 3.03801L14.8067 4.22978C14.8673 4.32662 14.9207 4.32454 14.9669 4.22353C15.143 3.84554 15.3726 3.479 15.6555 3.12392C15.825 2.91046 16.0176 2.79227 16.2334 2.76936C16.6583 2.7225 16.8675 2.96252 16.8609 3.48942C16.8477 4.55675 16.8499 5.62408 16.8675 6.69141C16.8741 7.11522 16.6203 7.28131 16.1063 7.18968C16.0333 7.17687 15.9673 7.14148 15.9192 7.08945C15.8711 7.03741 15.8439 6.97188 15.8421 6.90384L15.7975 4.82645C15.7964 4.77542 15.7799 4.7697 15.7479 4.80927C15.6125 4.97275 15.4915 5.14456 15.3847 5.32471C15.2526 5.54859 15.1552 5.68812 15.0924 5.74331C14.8623 5.9422 14.6504 5.86462 14.4567 5.51058C14.2673 5.16175 14.1055 4.90194 13.9712 4.73117C13.9371 4.68952 13.92 4.69524 13.92 4.74835Z" fill="#E98B71"/>
<path d="M22.1728 2.82872C22.2313 2.8484 22.2819 2.88465 22.3177 2.93248C22.3535 2.98031 22.3727 3.03737 22.3726 3.09581V6.28531C22.3726 6.32052 22.3874 6.35429 22.4137 6.37919C22.44 6.40409 22.4757 6.41808 22.513 6.41808C22.8872 6.41808 23.2802 6.4061 23.6919 6.38215C23.9715 6.36549 24.1136 6.53366 24.118 6.88666C24.1213 7.10013 24.0167 7.20842 23.8042 7.21155L21.7451 7.23342C21.5184 7.2355 21.3978 7.1246 21.3835 6.90072C21.3076 5.65324 21.3087 4.36307 21.3868 3.03021C21.3883 3.00427 21.395 2.97941 21.4064 2.95732C21.4178 2.93522 21.4337 2.9164 21.4529 2.90213C21.6466 2.75635 21.8866 2.73188 22.1728 2.82872Z" fill="#E98B71"/>
<path d="M25.3168 2.80529C25.3842 2.82272 25.4438 2.86131 25.4864 2.91517C25.5291 2.96902 25.5524 3.0352 25.5529 3.10362L25.5794 6.31187C25.5793 6.33271 25.5879 6.35286 25.6035 6.36844C25.619 6.38401 25.6404 6.39391 25.6636 6.39621C26.1865 6.44203 26.5343 6.44932 26.7071 6.41808C27.1706 6.33477 27.3737 6.51128 27.3165 6.94758C27.2911 7.14126 27.175 7.2381 26.968 7.2381H24.937C24.6948 7.2381 24.5721 7.12304 24.5688 6.89291C24.5589 5.86203 24.5561 4.78844 24.5605 3.67217C24.5605 3.66384 24.5528 3.54253 24.5374 3.30824C24.5077 2.83132 24.7675 2.66367 25.3168 2.80529Z" fill="#E98B71"/>
<path d="M12.2902 18.6194C12.2896 18.7712 12.2574 18.9214 12.1955 19.0614C12.1336 19.2015 12.0431 19.3286 11.9293 19.4355C11.8154 19.5425 11.6804 19.6272 11.5319 19.6848C11.3835 19.7424 11.2245 19.7718 11.064 19.7712L9.13867 19.7649C8.8146 19.7638 8.50426 19.641 8.2759 19.4235C8.04755 19.206 7.9199 18.9116 7.92104 18.605L7.92777 16.7807C7.92833 16.6289 7.96049 16.4787 8.02241 16.3386C8.08434 16.1986 8.17481 16.0715 8.28867 15.9645C8.40253 15.8576 8.53755 15.7729 8.68601 15.7153C8.83448 15.6577 8.99348 15.6283 9.15394 15.6289L11.0793 15.6352C11.4033 15.6363 11.7137 15.7591 11.942 15.9766C12.1704 16.1941 12.298 16.4885 12.2969 16.7951L12.2902 18.6194ZM11.0632 16.8925C11.0633 16.8693 11.0535 16.8471 11.0362 16.8306C11.0189 16.8142 10.9954 16.8049 10.9709 16.8049L9.25693 16.8021C9.23241 16.802 9.20888 16.8112 9.19151 16.8276C9.17414 16.844 9.16436 16.8662 9.16431 16.8894L9.16132 18.5107C9.16129 18.5339 9.17099 18.5562 9.1883 18.5726C9.20561 18.589 9.22911 18.5983 9.25363 18.5983L10.9676 18.6011C10.9921 18.6012 11.0157 18.592 11.033 18.5756C11.0504 18.5592 11.0602 18.537 11.0602 18.5138L11.0632 16.8925Z" fill="#E98B71"/>
<path d="M18.8688 18.6133C18.8693 18.9182 18.7418 19.2108 18.5143 19.4268C18.2868 19.6427 17.9779 19.7644 17.6556 19.7649L15.717 19.7681C15.3947 19.7686 15.0854 19.648 14.8571 19.4328C14.6288 19.2176 14.5002 18.9254 14.4996 18.6205L14.4962 16.7868C14.4957 16.4819 14.6232 16.1893 14.8507 15.9733C15.0782 15.7574 15.3871 15.6357 15.7094 15.6352L17.648 15.632C17.9703 15.6315 18.2796 15.7521 18.5079 15.9673C18.7362 16.1825 18.8648 16.4747 18.8654 16.7796L18.8688 18.6133ZM17.6315 16.8925C17.6316 16.8815 17.6293 16.8705 17.6249 16.8602C17.6205 16.85 17.6139 16.8406 17.6057 16.8328C17.5975 16.8249 17.5877 16.8186 17.5769 16.8143C17.5661 16.81 17.5545 16.8078 17.5428 16.8077L15.8255 16.7993C15.8019 16.7991 15.7792 16.8079 15.7624 16.8236C15.7456 16.8394 15.736 16.8608 15.7359 16.8831L15.7269 18.5107C15.7268 18.5218 15.7291 18.5327 15.7335 18.543C15.7379 18.5532 15.7444 18.5626 15.7527 18.5705C15.7609 18.5783 15.7707 18.5846 15.7815 18.5889C15.7923 18.5932 15.8039 18.5954 15.8156 18.5955L17.5328 18.604C17.5565 18.6041 17.5792 18.5953 17.596 18.5796C17.6128 18.5638 17.6223 18.5424 17.6225 18.5201L17.6315 16.8925Z" fill="#E98B71"/>
<path d="M25.4571 18.6194C25.4565 18.7712 25.4244 18.9214 25.3624 19.0614C25.3005 19.2015 25.21 19.3286 25.0962 19.4355C24.9823 19.5425 24.8473 19.6272 24.6988 19.6848C24.5504 19.7424 24.3914 19.7718 24.2309 19.7712L22.3056 19.7649C21.9815 19.7638 21.6712 19.641 21.4428 19.4235C21.2145 19.206 21.0868 18.9116 21.088 18.605L21.0947 16.7807C21.0953 16.6289 21.1274 16.4787 21.1893 16.3386C21.2513 16.1986 21.3417 16.0715 21.4556 15.9645C21.5695 15.8576 21.7045 15.7729 21.8529 15.7153C22.0014 15.6577 22.1604 15.6283 22.3209 15.6289L24.2462 15.6352C24.5703 15.6363 24.8806 15.7591 25.109 15.9766C25.3373 16.1941 25.465 16.4885 25.4638 16.7951L25.4571 18.6194ZM24.2008 16.8676C24.2008 16.8589 24.199 16.8504 24.1954 16.8425C24.1919 16.8345 24.1868 16.8273 24.1803 16.8212C24.1739 16.8152 24.1662 16.8104 24.1578 16.8071C24.1493 16.8038 24.1403 16.8022 24.1312 16.8022L22.3974 16.8079C22.3883 16.8079 22.3793 16.8097 22.3709 16.813C22.3625 16.8163 22.3549 16.8212 22.3485 16.8273C22.342 16.8334 22.337 16.8407 22.3335 16.8486C22.33 16.8566 22.3283 16.8651 22.3283 16.8737L22.3345 18.5388C22.3345 18.5474 22.3363 18.5559 22.3398 18.5639C22.3433 18.5718 22.3485 18.579 22.3549 18.5851C22.3614 18.5912 22.3691 18.596 22.3775 18.5992C22.3859 18.6025 22.3949 18.6042 22.4041 18.6041L24.1378 18.5984C24.1469 18.5984 24.156 18.5967 24.1644 18.5933C24.1728 18.59 24.1804 18.5852 24.1868 18.579C24.1932 18.5729 24.1983 18.5657 24.2018 18.5577C24.2052 18.5497 24.207 18.5412 24.207 18.5326L24.2008 16.8676Z" fill="#E98B71"/>
<path d="M32.0374 18.6081C32.0385 18.9138 31.9112 19.2075 31.6835 19.4244C31.4557 19.6413 31.1462 19.7638 30.823 19.7649L28.8911 19.7712C28.7311 19.7718 28.5725 19.7425 28.4244 19.685C28.2764 19.6276 28.1417 19.5431 28.0282 19.4365C27.9146 19.3298 27.8244 19.203 27.7626 19.0634C27.7009 18.9237 27.6688 18.7739 27.6682 18.6225L27.6615 16.792C27.6604 16.4862 27.7877 16.1926 28.0154 15.9757C28.2431 15.7588 28.5526 15.6363 28.8758 15.6352L30.8078 15.6289C30.9678 15.6283 31.1264 15.6576 31.2744 15.7151C31.4225 15.7725 31.5571 15.857 31.6707 15.9636C31.7842 16.0703 31.8745 16.1971 31.9362 16.3367C31.998 16.4764 32.0301 16.6262 32.0306 16.7775L32.0374 18.6081ZM30.7924 16.8831C30.7924 16.862 30.7835 16.8418 30.7676 16.8269C30.7518 16.812 30.7304 16.8036 30.7081 16.8036L28.9776 16.8065C28.9552 16.8065 28.9338 16.8149 28.9181 16.8299C28.9023 16.8449 28.8935 16.8651 28.8935 16.8863L28.8965 18.5232C28.8966 18.5443 28.9055 18.5646 28.9213 18.5795C28.9371 18.5944 28.9586 18.6027 28.9809 18.6027L30.7114 18.5999C30.7337 18.5998 30.7551 18.5914 30.7709 18.5764C30.7866 18.5615 30.7955 18.5412 30.7954 18.5201L30.7924 16.8831Z" fill="#E98B71"/>
</svg>
