<svg width="36" height="30" viewBox="0 0 36 30" fill="none" xmlns="http://www.w3.org/2000/svg">
<path d="M0.741341 0.000856133C0.319583 0.0408061 -0.00203575 0.395505 9.70204e-06 0.819257V28.6375C9.70204e-06 29.0895 0.366125 29.4556 0.818119 29.4559H8.59085C8.85367 29.4564 9.10108 29.3309 9.25546 29.1183C9.41012 28.9057 9.45292 28.6317 9.37074 28.3818L6.31541 19.2159C8.27584 18.2495 10.4483 17.0657 12.3111 15.4318C14.1146 13.85 15.6221 11.8573 16.1845 9.37218C16.7258 9.66181 17.342 9.81962 18 9.81962C18.6581 9.81962 19.2741 9.66181 19.8155 9.37218C20.3814 11.8537 21.8867 13.8486 23.6889 15.4318C25.5501 17.0666 27.7265 18.2497 29.6846 19.2159L26.6293 28.3818C26.5471 28.6317 26.5899 28.9057 26.7446 29.1183C26.8989 29.3309 27.1463 29.4564 27.4092 29.4559H35.1819C35.6339 29.4556 36 29.0895 36 28.6375V0.819257C36 0.367248 35.6339 0.00114834 35.1819 0.000856133H0.818236C0.792554 -0.000285378 0.767157 -0.000285378 0.741473 0.000856133H0.741341ZM1.63623 1.63737H34.3635V5.86898C34.3407 5.92234 34.3236 5.97798 34.3124 6.03505C34.0759 7.26269 33.0155 8.18263 31.7046 8.18263C30.1594 8.18263 29.0453 7.21557 29.0453 5.72823C29.039 5.28079 28.6746 4.92152 28.2272 4.92152C27.7798 4.92152 27.4154 5.28079 27.4091 5.72823C27.4091 7.2155 26.2951 8.18263 24.7499 8.18263C23.2047 8.18263 22.0909 7.21557 22.0909 5.72823C22.0846 5.28079 21.7202 4.92152 21.2728 4.92152C20.8254 4.92152 20.461 5.28079 20.4547 5.72823C20.4547 7.24121 19.408 8.18263 18 8.18263C16.592 8.18263 15.5453 7.24121 15.5453 5.72823C15.539 5.28079 15.1746 4.92152 14.7272 4.92152C14.2798 4.92152 13.9154 5.28079 13.9091 5.72823C13.9091 7.2155 12.7953 8.18263 11.2501 8.18263C9.70495 8.18263 8.59091 7.21557 8.59091 5.72823C8.58777 5.50651 8.49474 5.29591 8.33323 5.1441C8.17201 4.99229 7.9557 4.91239 7.73455 4.92267C7.30251 4.94293 6.96093 5.29592 6.95465 5.72821C6.95465 7.21548 5.8406 8.18261 4.29541 8.18261C2.98449 8.18261 1.92407 7.2626 1.68752 6.03503C1.67554 5.98224 1.65842 5.93087 1.63644 5.8815L1.63623 1.63737ZM7.7726 8.01656C8.55849 9.09524 9.81089 9.81919 11.25 9.81919C12.6788 9.81919 13.9267 9.1075 14.7143 8.04227C14.718 8.04712 14.7237 8.04998 14.7271 8.05483C14.7268 8.06767 14.7268 8.08051 14.7271 8.09335C14.4603 10.5934 13.1023 12.5681 11.2372 14.204C9.37213 15.8399 7.01678 17.0912 4.96015 18.0777C4.58833 18.2561 4.40741 18.6836 4.53839 19.0747L7.45302 27.8191H1.63626V8.88545C2.36963 9.46559 3.29191 9.81884 4.2952 9.81884C5.73425 9.81884 6.98673 9.09488 7.77262 8.01621L7.7726 8.01656ZM28.2272 8.01656C29.013 9.09524 30.2654 9.81919 31.7046 9.81919C32.7079 9.81919 33.6301 9.46592 34.3635 8.8858V27.8194H28.5468L31.4614 19.0751C31.5924 18.6839 31.4114 18.2564 31.0396 18.0781C28.9865 17.0933 26.6402 15.8298 24.7754 14.1915C22.9106 12.5535 21.5445 10.5877 21.2726 8.09363V8.06795C21.2781 8.06024 21.2801 8.05025 21.2855 8.04255C22.0731 9.10779 23.3209 9.81947 24.7498 9.81947C26.1888 9.81947 27.4413 9.0955 28.2272 8.01683L28.2272 8.01656Z" fill="#383FF1"/>
</svg>
