<svg width="38" height="38" viewBox="0 0 38 38" fill="none" xmlns="http://www.w3.org/2000/svg">
<path fill-rule="evenodd" clip-rule="evenodd" d="M26.7104 0.427037C26.9842 0.153591 27.3553 0 27.7423 0C28.1292 0 28.5004 0.153591 28.7741 0.427037L37.5353 9.18816C37.8087 9.46194 37.9623 9.83307 37.9623 10.22C37.9623 10.607 37.8087 10.9781 37.5353 11.2519L28.7741 20.013C28.6405 20.1565 28.4793 20.2715 28.3001 20.3513C28.121 20.4312 27.9277 20.4741 27.7316 20.4775C27.5355 20.481 27.3408 20.4449 27.159 20.3715C26.9772 20.298 26.812 20.1887 26.6733 20.0501C26.5347 19.9114 26.4254 19.7463 26.3519 19.5644C26.2785 19.3826 26.2424 19.1879 26.2459 18.9918C26.2493 18.7958 26.2923 18.6024 26.3721 18.4233C26.4519 18.2442 26.5669 18.083 26.7104 17.9493L32.9795 11.6802H10.22C9.83276 11.6802 9.46136 11.5264 9.18752 11.2525C8.91368 10.9787 8.75984 10.6073 8.75984 10.22C8.75984 9.83276 8.91368 9.46135 9.18752 9.18752C9.46136 8.91368 9.83276 8.75984 10.22 8.75984H32.9795L26.7104 2.49077C26.437 2.21698 26.2834 1.84585 26.2834 1.4589C26.2834 1.07195 26.437 0.700822 26.7104 0.427037ZM11.2519 17.9493C11.5253 18.2231 11.6789 18.5942 11.6789 18.9811C11.6789 19.3681 11.5253 19.7392 11.2519 20.013L4.98282 26.2821H27.7423C28.1295 26.2821 28.5009 26.4359 28.7748 26.7098C29.0486 26.9836 29.2025 27.355 29.2025 27.7423C29.2025 28.1295 29.0486 28.5009 28.7748 28.7748C28.5009 29.0486 28.1295 29.2025 27.7423 29.2025H4.98282L11.2519 35.4715C11.3954 35.6052 11.5104 35.7664 11.5902 35.9455C11.67 36.1246 11.713 36.318 11.7164 36.5141C11.7199 36.7101 11.6838 36.9049 11.6104 37.0867C11.5369 37.2685 11.4276 37.4337 11.289 37.5723C11.1503 37.711 10.9851 37.8203 10.8033 37.8937C10.6215 37.9672 10.4267 38.0032 10.2307 37.9998C10.0346 37.9963 9.84128 37.9534 9.66216 37.8736C9.48304 37.7938 9.32184 37.6787 9.18816 37.5353L0.427037 28.7741C0.153591 28.5003 0 28.1292 0 27.7423C0 27.3553 0.153591 26.9842 0.427037 26.7104L9.18816 17.9493C9.46195 17.6758 9.83308 17.5222 10.22 17.5222C10.607 17.5222 10.9781 17.6758 11.2519 17.9493Z" fill="#E88B71"/>
</svg>
